<svg width="1300" height="1300" viewBox="0 0 1300 1300" fill="none" xmlns="http://www.w3.org/2000/svg">
<path d="M650 1300C290.71 1300 0 1008.86 0 650C0 290.71 291.141 0 650 0C1009.29 0 1300 291.141 1300 650C1300.43 1009.29 1009.29 1300 650 1300Z" fill="#B5E2C9"/>
<mask id="mask0_26_635" style="mask-type:alpha" maskUnits="userSpaceOnUse" x="0" y="0" width="1301" height="1300">
<path d="M650 1300C290.71 1300 0 1008.86 0 650C0 290.71 291.141 0 650 0C1009.29 0 1300 291.141 1300 650C1300.43 1009.29 1009.29 1300 650 1300Z" fill="#F7C0B5"/>
</mask>
<g mask="url(#mask0_26_635)">
<path d="M1012.27 1197.33C1009.23 1199.5 1005.77 1201.66 1002.73 1203.83C999.265 1206 996.232 1208.16 992.765 1209.9C989.732 1211.63 987.132 1213.36 984.099 1215.1C983.665 1215.53 983.232 1215.53 982.799 1215.96C972.832 1222.03 962.432 1227.66 952.032 1232.86C948.999 1234.6 945.532 1236.33 942.499 1237.63C942.499 1237.63 942.065 1238.06 941.632 1238.06C938.165 1239.8 934.699 1241.53 931.232 1243.26C924.299 1246.73 916.932 1249.76 909.999 1252.8C906.532 1254.53 902.632 1255.83 899.165 1257.13C895.699 1258.43 891.799 1260.16 888.332 1261.46C884.865 1262.76 880.965 1264.5 877.499 1265.8C877.499 1265.8 877.499 1265.8 877.065 1265.8C873.599 1267.1 869.699 1268.4 866.232 1269.7C858.432 1272.3 850.199 1274.9 842.399 1277.5C839.799 1278.36 836.765 1279.23 834.165 1280.1C825.932 1282.7 817.699 1284.86 809.465 1286.6C806.432 1287.46 803.399 1287.9 799.932 1288.76C792.132 1290.5 783.899 1292.23 776.099 1293.96C774.365 1294.4 773.065 1294.4 771.332 1294.83C768.732 1295.26 765.699 1295.7 763.099 1296.13C759.199 1296.56 755.732 1297.43 751.832 1297.86C750.099 1298.3 748.365 1298.3 746.632 1298.73C744.465 1299.16 741.865 1299.6 739.265 1299.6C732.332 1300.46 724.965 1301.33 718.032 1302.2C715.865 1302.63 713.265 1302.63 711.099 1303.06H710.665C707.632 1303.5 704.599 1303.5 701.565 1303.93C698.532 1304.36 695.499 1304.36 692.465 1304.36C690.732 1304.36 688.565 1304.8 686.832 1304.8C683.365 1304.8 680.332 1305.23 677.299 1305.23C672.965 1305.23 669.065 1305.66 664.732 1305.66C660.399 1305.66 656.499 1305.66 652.165 1305.66C649.132 1305.66 646.099 1305.66 643.065 1305.66C460.632 1303.06 295.965 1225.5 178.965 1102.43C178.965 1102.43 178.965 1102 178.532 1102C191.965 1075.56 241.799 1027.9 293.799 988.465C359.665 938.632 452.832 907.865 452.832 907.865C452.832 907.865 513.932 897.898 740.565 945.132C913.465 981.532 987.132 1129.3 1012.27 1197.33Z" fill="#C99589"/>
<path d="M788.666 1065.16C779.566 1109.8 720.632 1136.23 621.399 1096.36C499.632 1046.96 452.832 907.865 452.832 907.865C446.332 808.198 431.166 722.832 431.166 722.832C571.999 710.698 738.399 875.365 738.399 875.365L757.466 956.832C759.199 963.765 762.665 969.832 767.865 974.165C776.965 989.765 794.732 1036.56 788.666 1065.16Z" fill="#C99589"/>
<path d="M767.865 974.599C685.098 970.265 623.998 958.132 558.565 840.699C614.032 889.665 679.465 908.299 748.365 916.965L757.465 956.832C759.198 964.199 762.665 970.265 767.865 974.599Z" fill="#A56663"/>
<path d="M939.032 452.432C946.832 488.832 950.732 518.298 929.499 615.365C908.265 712.432 948.998 809.498 846.732 898.332C777.832 958.132 657.365 969.398 561.165 903.965C528.665 881.865 498.765 851.098 474.499 810.798C455.432 779.165 433.332 749.265 408.632 721.965C374.399 684.698 333.232 609.732 353.599 477.132C386.532 261.332 600.165 236.632 726.265 260.465C852.365 284.298 917.799 356.232 939.032 452.432Z" fill="#C99589"/>
<path d="M524.332 621.865C524.332 621.865 510.898 556.865 447.632 564.665C393.032 571.598 373.965 702.465 497.898 738.865" fill="#C99589"/>
<path d="M493.999 679.498C493.999 679.498 478.399 669.532 480.132 652.198C482.732 631.832 480.132 619.265 470.599 615.365C446.766 605.398 441.999 633.132 442.866 636.598" stroke="#423232" stroke-width="13" stroke-miterlimit="10" stroke-linecap="round" stroke-linejoin="round"/>
<path d="M824.631 721.532C824.631 721.532 841.098 722.398 856.698 703.765C865.365 693.365 872.731 680.365 867.965 676.465C863.198 672.132 784.765 684.265 779.565 694.665C774.365 705.065 804.698 721.532 824.631 721.532Z" fill="#A56663"/>
<path d="M837.632 575.932C837.632 575.932 838.499 617.098 864.932 663.032C876.632 683.398 858.865 716.765 820.299 722.398" stroke="#423232" stroke-width="13" stroke-miterlimit="10" stroke-linecap="round" stroke-linejoin="round"/>
<path d="M1057.78 1116.61C996.25 1037.31 900.917 1004.37 848.483 984.873C844.15 963.206 835.917 939.373 822.917 916.406C802.983 928.54 780.017 937.64 756.184 942.406L759.65 956.706C761.383 963.64 770.05 995.706 756.617 1036.87C745.35 1071.54 699.85 1087.14 622.717 1052.04C472.35 984.006 455.017 907.306 455.017 907.306C452.417 865.706 448.084 826.706 444.184 795.073C397.384 805.473 343.217 826.706 313.75 871.34C277.35 925.94 263.917 981.406 267.384 1025.61C204.117 1065.91 106.184 1127.01 74.1168 1236.21C32.5168 1378.34 39.4502 1465.44 39.4502 1465.44H1159.18C1157.88 1465.87 1141.42 1224.51 1057.78 1116.61Z" fill="#FFDE55"/>
<path d="M388.283 974.473C388.283 974.473 414.716 1077.17 530.416 1148.24" stroke="#423232" stroke-width="13" stroke-miterlimit="10" stroke-linecap="round" stroke-linejoin="round"/>
<path d="M848.05 984.873C848.05 984.873 878.817 1117.91 811.65 1179.01" stroke="#423232" stroke-width="13" stroke-miterlimit="10" stroke-linecap="round" stroke-linejoin="round"/>
<path d="M639.183 1158.64C639.183 1158.64 616.65 1224.51 622.717 1270.01" stroke="#423232" stroke-width="13" stroke-miterlimit="10" stroke-linecap="round" stroke-linejoin="round"/>
<path d="M777.417 1154.74C777.417 1154.74 794.318 1191.57 806.451 1250.07" stroke="#423232" stroke-width="13" stroke-miterlimit="10" stroke-linecap="round" stroke-linejoin="round"/>
<path d="M266.517 1026.04C266.517 1026.04 302.05 1170.77 513.517 1213.24" stroke="#423232" stroke-width="13" stroke-miterlimit="10" stroke-linecap="round" stroke-linejoin="round"/>
<path d="M626.617 1279.97L607.55 1278.24C600.617 1277.37 595.417 1270.87 596.717 1263.94L603.217 1231.44C604.95 1222.34 613.617 1215.84 622.717 1217.14C631.817 1218.01 639.183 1225.81 639.183 1235.34L639.617 1268.71C639.617 1275.21 633.55 1280.84 626.617 1279.97Z" fill="white"/>
<path d="M825.517 1260.04L807.317 1266.54C800.384 1269.14 793.017 1264.81 791.717 1257.87L783.917 1225.81C781.75 1216.71 786.517 1207.61 795.617 1204.14C804.284 1201.11 814.25 1205.01 818.15 1213.24L832.45 1243.14C835.484 1249.64 832.45 1257.44 825.517 1260.04Z" fill="white"/>
<path d="M1016.62 1250.07C1016.62 1250.07 1040.88 1386.14 1031.35 1465.87" stroke="#544D4D" stroke-width="13" stroke-miterlimit="10" stroke-linecap="round" stroke-linejoin="round"/>
<path d="M683.943 619.439C673.543 619.006 665.743 610.339 666.61 599.939L667.043 587.806C667.476 577.406 676.143 569.606 686.543 570.473C696.943 570.906 704.743 579.573 703.876 589.973L703.443 602.106C703.01 612.073 694.343 619.873 683.943 619.439Z" fill="#423232"/>
<path d="M866.375 625.939C856.842 625.506 849.475 617.272 849.909 607.739L850.342 596.472C850.775 586.939 859.009 579.572 868.542 580.006C878.075 580.439 885.442 588.672 885.009 598.206L884.575 609.472C884.142 619.006 875.909 626.372 866.375 625.939Z" fill="#423232"/>
<path d="M725.977 594.306C725.977 594.306 714.71 578.273 695.21 575.239C679.177 572.639 661.41 580.439 658.81 589.539" stroke="#423232" stroke-width="13" stroke-miterlimit="10" stroke-linecap="round" stroke-linejoin="round"/>
<path d="M853.809 598.206C853.809 598.206 853.809 584.339 873.743 584.339C890.209 584.339 897.143 599.506 897.143 599.506" stroke="#423232" stroke-width="13" stroke-miterlimit="10" stroke-linecap="round" stroke-linejoin="round"/>
<path d="M743.743 524.539C752.843 527.573 761.943 519.339 760.209 509.373C759.343 504.173 757.176 498.973 752.843 495.073C739.843 483.373 686.109 472.973 653.609 488.139C625.009 502.006 702.143 510.673 743.743 524.539Z" fill="#423232"/>
<path d="M873.308 531.473C865.941 534.073 858.141 526.273 859.441 517.173C859.874 512.406 861.608 507.639 865.074 504.173C875.474 493.773 911.008 485.539 933.541 501.573C953.041 515.006 907.108 518.906 873.308 531.473Z" fill="#423232"/>
<path d="M793.697 770.764C768.997 785.497 725.231 769.464 704.864 744.764" stroke="#423232" stroke-width="13" stroke-miterlimit="10" stroke-linecap="round" stroke-linejoin="round"/>
<path d="M974.206 347.827C943.44 459.194 854.173 440.56 770.54 410.227C659.173 369.494 561.24 402.427 560.806 502.96C559.94 650.294 523.106 605.66 519.206 600.027C509.673 581.827 489.306 559.294 450.74 564.06C400.04 570.56 380.106 682.36 474.573 728.294C491.04 811.927 445.973 804.127 445.973 804.127C430.806 742.594 303.406 611.727 302.973 525.494C302.973 409.36 361.473 376.427 361.473 376.427C363.206 295.394 447.706 206.127 589.84 209.16C731.973 211.76 819.073 207.86 846.806 174.494C874.539 140.26 1004.97 236.46 974.206 347.827Z" fill="#423232"/>
<path d="M977.673 481.727C973.34 509.894 961.206 531.56 944.306 547.594C950.806 500.36 947.34 477.827 941.706 451.394C929.573 397.227 903.573 350.427 860.24 315.76C881.906 314.027 904.006 318.794 923.94 331.36C923.94 330.927 995.44 359.96 977.673 481.727Z" fill="#423232"/>
</g>
</svg>
