<svg width="1300" height="1300" viewBox="0 0 1300 1300" fill="none" xmlns="http://www.w3.org/2000/svg">
<path d="M650 1300C290.71 1300 0 1008.86 0 650C0 290.71 291.141 0 650 0C1009.29 0 1300 291.141 1300 650C1300.43 1009.29 1009.29 1300 650 1300Z" fill="#B5E2C9"/>
<mask id="mask0_26_635" style="mask-type:alpha" maskUnits="userSpaceOnUse" x="0" y="0" width="1301" height="1300">
<path d="M650 1300C290.71 1300 0 1008.86 0 650C0 290.71 291.141 0 650 0C1009.29 0 1300 291.141 1300 650C1300.43 1009.29 1009.29 1300 650 1300Z" fill="#F7C0B5"/>
</mask>
<g mask="url(#mask0_26_635)">
<path d="M1014.87 1197.33C1011.83 1199.5 1008.37 1201.66 1005.33 1203.83C1001.87 1206 998.832 1208.16 995.366 1209.9C992.332 1211.63 989.732 1213.36 986.699 1215.1C986.266 1215.53 985.832 1215.53 985.399 1215.96C975.432 1222.03 965.032 1227.66 954.632 1232.86C951.599 1234.6 948.132 1236.33 945.099 1237.63C945.099 1237.63 944.666 1238.06 944.232 1238.06C940.766 1239.8 937.299 1241.53 933.832 1243.26C926.899 1246.73 919.532 1249.76 912.599 1252.8C909.132 1254.53 905.232 1255.83 901.766 1257.13C898.299 1258.43 894.399 1260.16 890.932 1261.46C887.466 1262.76 883.566 1264.5 880.099 1265.8C880.099 1265.8 880.099 1265.8 879.666 1265.8C876.199 1267.1 872.299 1268.4 868.832 1269.7C861.032 1272.3 852.799 1274.9 844.999 1277.5C842.399 1278.36 839.366 1279.23 836.766 1280.1C828.532 1282.7 820.299 1284.86 812.066 1286.6C809.032 1287.46 805.999 1287.9 802.532 1288.76C794.732 1290.5 786.499 1292.23 778.699 1293.96C776.966 1294.4 775.666 1294.4 773.932 1294.83C771.332 1295.26 768.299 1295.7 765.699 1296.13C761.799 1296.56 758.332 1297.43 754.432 1297.86C752.699 1298.3 750.966 1298.3 749.232 1298.73C747.066 1299.16 744.466 1299.6 741.866 1299.6C734.932 1300.46 727.566 1301.33 720.632 1302.2C718.466 1302.63 715.866 1302.63 713.699 1303.06H713.266C710.232 1303.5 707.199 1303.5 704.166 1303.93C701.132 1304.36 698.099 1304.36 695.066 1304.36C693.332 1304.36 691.166 1304.8 689.432 1304.8C685.966 1304.8 682.932 1305.23 679.899 1305.23C675.566 1305.23 671.666 1305.66 667.332 1305.66C662.999 1305.66 659.099 1305.66 654.766 1305.66C651.732 1305.66 648.699 1305.66 645.666 1305.66C463.232 1303.06 298.566 1225.5 181.566 1102.43C181.566 1102.43 181.566 1102 181.132 1102C194.566 1075.56 244.399 1027.9 296.399 988.465C362.266 938.632 455.432 907.865 455.432 907.865C455.432 907.865 516.532 897.898 743.166 945.132C916.066 981.532 989.732 1129.3 1014.87 1197.33Z" fill="#AD827B"/>
<path d="M791.266 1065.16C782.166 1109.8 723.233 1136.23 623.999 1096.36C502.233 1046.96 455.433 907.865 455.433 907.865C448.933 808.198 433.766 722.832 433.766 722.832C574.599 710.698 740.999 875.365 740.999 875.365L760.066 956.832C761.799 963.765 765.266 969.832 770.466 974.165C779.566 989.765 797.333 1036.56 791.266 1065.16Z" fill="#AD827B"/>
<path d="M770.466 974.599C687.699 970.265 626.599 958.132 561.166 840.699C616.632 889.665 682.066 908.299 750.966 916.965L760.066 956.832C761.799 964.199 765.266 970.265 770.466 974.599Z" fill="#8E5650"/>
<path d="M941.632 452.432C949.432 488.832 953.332 518.298 932.099 615.365C910.866 712.432 951.599 809.498 849.332 898.332C780.432 958.132 659.966 969.398 563.766 903.965C531.266 881.865 501.366 851.098 477.099 810.798C458.032 779.165 435.932 749.265 411.232 721.965C376.999 684.698 335.832 609.732 356.199 477.132C389.132 261.332 602.766 236.632 728.866 260.465C854.966 284.298 920.399 356.232 941.632 452.432Z" fill="#AD827B"/>
<path d="M526.932 621.865C526.932 621.865 513.499 556.865 450.232 564.665C395.632 571.598 376.566 702.465 500.499 738.865" fill="#AD827B"/>
<path d="M496.6 679.498C496.6 679.498 481 669.532 482.733 652.198C485.333 631.832 482.733 619.265 473.2 615.365C449.366 605.398 444.6 633.132 445.466 636.598" stroke="#423232" stroke-width="13" stroke-miterlimit="10" stroke-linecap="round" stroke-linejoin="round"/>
<path d="M827.232 721.532C827.232 721.532 843.699 722.398 859.299 703.765C867.965 693.365 875.332 680.365 870.565 676.465C865.799 672.132 787.365 684.265 782.165 694.665C776.965 705.065 807.299 721.532 827.232 721.532Z" fill="#8E605C"/>
<path d="M840.233 575.932C840.233 575.932 841.099 617.098 867.533 663.032C879.233 683.398 861.466 716.765 822.899 722.398" stroke="#423232" stroke-width="13" stroke-miterlimit="10" stroke-linecap="round" stroke-linejoin="round"/>
<path d="M1057.78 1116.61C996.25 1037.31 900.917 1004.37 848.483 984.873C844.15 963.206 835.917 939.373 822.917 916.406C802.983 928.54 780.017 937.64 756.184 942.406L759.65 956.706C761.383 963.64 770.05 995.706 756.617 1036.87C745.35 1071.54 699.85 1087.14 622.717 1052.04C472.35 984.006 455.017 907.306 455.017 907.306C452.417 865.706 448.084 826.706 444.184 795.073C397.384 805.473 343.217 826.706 313.75 871.34C277.35 925.94 263.917 981.406 267.384 1025.61C204.117 1065.91 106.184 1127.01 74.1168 1236.21C32.5168 1378.34 39.4502 1465.44 39.4502 1465.44H1159.18C1157.88 1465.87 1141.42 1224.51 1057.78 1116.61Z" fill="#6060D8"/>
<path d="M388.283 974.473C388.283 974.473 414.716 1077.17 530.416 1148.24" stroke="#423232" stroke-width="13" stroke-miterlimit="10" stroke-linecap="round" stroke-linejoin="round"/>
<path d="M848.05 984.873C848.05 984.873 878.817 1117.91 811.65 1179.01" stroke="#423232" stroke-width="13" stroke-miterlimit="10" stroke-linecap="round" stroke-linejoin="round"/>
<path d="M639.183 1158.64C639.183 1158.64 616.65 1224.51 622.717 1270.01" stroke="#423232" stroke-width="13" stroke-miterlimit="10" stroke-linecap="round" stroke-linejoin="round"/>
<path d="M777.417 1154.74C777.417 1154.74 794.318 1191.57 806.451 1250.07" stroke="#423232" stroke-width="13" stroke-miterlimit="10" stroke-linecap="round" stroke-linejoin="round"/>
<path d="M266.517 1026.04C266.517 1026.04 302.05 1170.77 513.517 1213.24" stroke="#423232" stroke-width="13" stroke-miterlimit="10" stroke-linecap="round" stroke-linejoin="round"/>
<path d="M626.617 1279.97L607.55 1278.24C600.617 1277.37 595.417 1270.87 596.717 1263.94L603.217 1231.44C604.95 1222.34 613.617 1215.84 622.717 1217.14C631.817 1218.01 639.183 1225.81 639.183 1235.34L639.617 1268.71C639.617 1275.21 633.55 1280.84 626.617 1279.97Z" fill="white"/>
<path d="M825.517 1260.04L807.317 1266.54C800.384 1269.14 793.017 1264.81 791.717 1257.87L783.917 1225.81C781.75 1216.71 786.517 1207.61 795.617 1204.14C804.284 1201.11 814.25 1205.01 818.15 1213.24L832.45 1243.14C835.484 1249.64 832.45 1257.44 825.517 1260.04Z" fill="white"/>
<path d="M1016.62 1250.07C1016.62 1250.07 1040.88 1386.14 1031.35 1465.87" stroke="#544D4D" stroke-width="13" stroke-miterlimit="10" stroke-linecap="round" stroke-linejoin="round"/>
<path d="M699.71 590.249C699.71 590.683 699.71 591.116 699.71 591.116L699.277 603.249C698.843 613.649 690.177 621.449 679.777 621.016C669.377 620.583 661.577 611.483 662.443 601.516L662.877 589.383C662.877 587.216 663.743 584.616 664.61 582.883L699.277 584.616C699.277 586.349 699.71 588.083 699.71 590.249Z" fill="#423232"/>
<path d="M880.841 599.783L880.408 611.049C879.975 620.583 871.742 627.949 862.208 627.516C852.675 627.083 845.308 618.849 845.742 609.316L846.175 598.049C846.175 595.883 846.608 593.716 847.475 591.983L879.975 593.283C880.842 595.449 880.841 597.616 880.841 599.783Z" fill="#423232"/>
<path d="M743.042 530.882C752.576 532.182 759.942 522.216 756.476 512.682C754.742 507.482 751.709 502.716 746.942 499.682C732.209 490.582 677.176 489.716 648.142 510.516C622.576 529.582 699.709 524.816 743.042 530.882Z" fill="#423232"/>
<path d="M863.074 535.649C855.274 535.649 850.508 525.682 854.408 517.449C856.574 513.116 859.608 509.216 863.941 507.049C877.374 500.549 913.341 504.449 929.374 526.549C943.674 546.049 899.041 535.216 863.074 535.649Z" fill="#423232"/>
<path d="M727.875 585.482L698.842 584.182L664.175 582.882L656.375 582.449" stroke="#423232" stroke-width="13" stroke-miterlimit="10" stroke-linecap="round" stroke-linejoin="round"/>
<path d="M899.042 594.149L879.975 593.283L847.475 591.983H846.175" stroke="#423232" stroke-width="13" stroke-miterlimit="10" stroke-linecap="round" stroke-linejoin="round"/>
<path d="M820.997 777.919C820.997 777.919 765.964 752.352 739.531 766.219" stroke="#423232" stroke-width="13" stroke-miterlimit="10" stroke-linecap="round" stroke-linejoin="round"/>
<path d="M946.381 478.166C945.514 472.966 944.214 467.766 943.348 462.133C938.581 440.9 931.648 420.966 922.548 402.333L871.414 423.566C856.681 429.633 840.214 431.366 824.181 428.766L621.381 393.666C596.681 389.333 572.848 403.633 564.614 427.033C558.548 443.933 551.181 463.433 543.381 479.9C481.848 489.866 422.048 476.866 365.281 452.6C360.948 450.866 357.048 449.133 352.714 446.966C360.514 407.533 330.614 242.866 367.881 199.966C380.448 185.666 393.014 183.933 405.148 188.266C433.314 198.233 464.948 192.6 485.314 170.933C501.781 154.033 522.581 139.3 548.148 138.866C560.714 138.433 570.681 141.033 578.914 145.8C604.914 160.1 636.548 155.333 659.948 137.566C667.314 132.366 675.114 128.9 683.781 128.9C696.348 128.9 707.614 134.1 716.714 141.033C734.048 154.033 757.014 157.066 778.248 152.733C779.548 152.3 780.848 152.3 782.148 152.3C787.348 152.3 792.981 153.6 797.748 155.766C815.948 163.566 836.314 164.433 854.514 156.633C863.181 153.166 873.581 153.166 883.981 163.133C896.981 175.7 913.881 183.933 932.081 184.366C936.848 184.366 942.914 186.533 950.281 191.3C953.748 193.9 956.781 198.666 958.948 205.166C962.414 215.133 970.648 222.5 981.048 225.533C987.548 227.7 992.314 234.2 993.614 248.933C997.948 295.733 957.214 440.466 946.381 478.166Z" fill="#423232"/>
<path d="M980.181 225.1C961.115 232.033 957.648 228.133 935.981 222.5C914.315 216.866 895.248 241.133 879.648 216C857.115 179.166 815.515 204.3 807.281 197.366C799.048 190.433 773.481 167.466 737.515 191.733C713.681 207.766 683.348 179.166 645.215 179.166C568.948 179.166 555.081 235.066 528.648 209.5C502.215 184.366 474.048 201.266 435.048 208.2C396.048 215.133 376.115 191.733 376.115 191.733C385.648 185.233 395.181 185.233 404.281 188.266C432.448 198.233 464.081 192.6 484.448 170.933C500.915 154.033 521.715 139.3 547.281 138.866C559.848 138.433 569.815 141.033 578.048 145.8C604.048 160.1 635.681 155.333 659.081 137.566C666.448 132.366 674.248 128.9 682.915 128.9C695.481 128.9 706.748 134.1 715.848 141.033C733.181 154.033 756.148 157.066 777.381 152.733C778.681 152.3 779.981 152.3 781.281 152.3C786.481 152.3 792.115 153.6 796.881 155.766C815.081 163.566 835.448 164.433 853.648 156.633C862.315 153.166 872.715 153.166 883.115 163.133C896.115 175.7 913.015 183.933 931.215 184.366C935.981 184.366 942.048 186.533 949.415 191.3C952.881 193.9 955.915 198.666 958.081 205.166C961.548 214.7 970.215 222.066 980.181 225.1Z" fill="#5E4949"/>
<path d="M525.181 620.3C517.815 602.1 498.315 568.733 452.381 574.8C406.448 580.433 385.648 673.6 453.248 724.733C472.748 739.033 493.115 745.966 493.115 745.966L440.681 764.166C440.681 764.166 345.348 710 341.881 586.066C340.148 528.433 346.215 481.633 352.715 447.4C412.948 475.133 477.081 491.166 543.381 480.333C536.014 495.5 527.781 508.066 519.981 514.133C496.148 531.466 528.215 577.833 525.181 620.3Z" fill="#99807F"/>
<path d="M526.048 508.066C523.881 510.233 522.148 512.4 519.981 513.7C514.781 517.6 512.181 523.233 511.314 529.733C484.448 531.033 445.881 519.766 432.448 515.433C429.414 514.566 427.681 511.966 427.681 508.933V506.766C427.681 502 432.014 498.966 436.348 499.833C466.248 508.066 523.881 508.066 526.048 508.066Z" fill="#423232"/>
<path d="M516.948 566.133C493.115 564.4 470.148 560.066 459.748 557.9C456.281 557.033 454.115 554.433 454.115 550.966C454.115 546.633 458.015 543.6 462.348 544.033C481.848 547.066 502.648 546.633 512.615 546.2C513.481 552.266 515.215 558.766 516.948 566.133Z" fill="#423232"/>
</g>
</svg>
