<svg width="1300" height="1300" viewBox="0 0 1300 1300" fill="none" xmlns="http://www.w3.org/2000/svg">
<path d="M650 1300C290.71 1300 0 1008.86 0 650C0 290.71 291.141 0 650 0C1009.29 0 1300 291.141 1300 650C1300.43 1009.29 1009.29 1300 650 1300Z" fill="#B5E2C9"/>
<mask id="mask0_32_1442" style="mask-type:alpha" maskUnits="userSpaceOnUse" x="0" y="0" width="1301" height="1300">
<path d="M650 1300C290.71 1300 0 1008.86 0 650C0 290.71 291.141 0 650 0C1009.29 0 1300 291.141 1300 650C1300.43 1009.29 1009.29 1300 650 1300Z" fill="#F7C0B5"/>
</mask>
<g mask="url(#mask0_32_1442)">
<path d="M1015.73 1197.33C1012.7 1199.5 1009.23 1201.66 1006.2 1203.83C1002.73 1206 999.698 1208.16 996.231 1209.9C993.198 1211.63 990.598 1213.36 987.564 1215.1C987.131 1215.53 986.698 1215.53 986.265 1215.96C976.298 1222.03 965.898 1227.66 955.498 1232.86C952.465 1234.6 948.998 1236.33 945.965 1237.63C945.965 1237.63 945.531 1238.06 945.098 1238.06C941.631 1239.8 938.165 1241.53 934.698 1243.26C927.765 1246.73 920.398 1249.76 913.465 1252.8C909.998 1254.53 906.098 1255.83 902.631 1257.13C899.165 1258.43 895.265 1260.16 891.798 1261.46C888.331 1262.76 884.431 1264.5 880.965 1265.8C880.965 1265.8 880.965 1265.8 880.531 1265.8C877.064 1267.1 873.165 1268.4 869.698 1269.7C861.898 1272.3 853.665 1274.9 845.864 1277.5C843.265 1278.36 840.231 1279.23 837.631 1280.1C829.398 1282.7 821.165 1284.86 812.931 1286.6C809.898 1287.46 806.864 1287.9 803.398 1288.76C795.598 1290.5 787.364 1292.23 779.564 1293.96C777.831 1294.4 776.531 1294.4 774.798 1294.83C772.198 1295.26 769.165 1295.7 766.564 1296.13C762.665 1296.56 759.198 1297.43 755.298 1297.86C753.565 1298.3 751.831 1298.3 750.098 1298.73C747.931 1299.16 745.331 1299.6 742.731 1299.6C735.798 1300.46 728.431 1301.33 721.498 1302.2C719.331 1302.63 716.731 1302.63 714.565 1303.06H714.131C711.098 1303.5 708.064 1303.5 705.031 1303.93C701.998 1304.36 698.965 1304.36 695.931 1304.36C694.198 1304.36 692.031 1304.8 690.298 1304.8C686.831 1304.8 683.798 1305.23 680.765 1305.23C676.431 1305.23 672.531 1305.66 668.198 1305.66C663.865 1305.66 659.965 1305.66 655.631 1305.66C652.598 1305.66 649.565 1305.66 646.531 1305.66C464.098 1303.06 299.431 1225.5 182.431 1102.43C182.431 1102.43 182.431 1102 181.998 1102C195.431 1075.56 245.265 1027.9 297.265 988.464C363.131 938.631 456.298 907.865 456.298 907.865C456.298 907.865 517.398 897.898 744.031 945.131C916.931 981.531 990.598 1129.3 1015.73 1197.33Z" fill="#FEE4BF"/>
<path d="M792.131 1065.16C783.031 1109.8 724.098 1136.23 624.864 1096.36C503.098 1046.96 456.298 907.865 456.298 907.865C449.798 808.198 434.631 722.831 434.631 722.831C575.465 710.698 741.864 875.365 741.864 875.365L760.931 956.831C762.664 963.764 766.131 969.831 771.331 974.165C780.431 989.764 798.198 1036.56 792.131 1065.16Z" fill="#FEE4BF"/>
<path d="M771.331 974.598C688.564 970.265 627.464 958.131 562.031 840.698C617.498 889.665 682.931 908.298 751.831 916.965L760.931 956.831C762.664 964.198 766.131 970.265 771.331 974.598Z" fill="#EFBDA5"/>
<path d="M942.498 452.431C950.298 488.831 954.198 518.298 932.964 615.365C911.731 712.431 952.464 809.498 850.198 898.331C781.298 958.131 660.831 969.398 564.631 903.965C532.131 881.865 502.231 851.098 477.964 810.798C458.898 779.165 436.798 749.265 412.098 721.965C377.864 684.698 336.698 609.731 357.065 477.131C389.998 261.331 603.631 236.631 729.731 260.465C855.831 284.298 921.264 356.231 942.498 452.431Z" fill="#FEE4BF"/>
<path d="M527.798 621.865C527.798 621.865 514.365 556.865 451.098 564.665C396.498 571.598 377.431 702.465 501.364 738.865" fill="#FEE4BF"/>
<path d="M497.464 679.498C497.464 679.498 481.864 669.531 483.598 652.198C486.198 631.831 483.598 619.265 474.065 615.365C450.231 605.398 445.465 633.131 446.331 636.598" stroke="#423232" stroke-width="13.4786" stroke-miterlimit="10" stroke-linecap="round" stroke-linejoin="round"/>
<path d="M828.098 721.531C828.098 721.531 844.564 722.398 860.164 703.765C868.831 693.365 876.198 680.365 871.431 676.465C866.664 672.131 788.231 684.265 783.031 694.665C777.831 705.065 808.164 721.531 828.098 721.531Z" fill="#EFBDA5"/>
<path d="M841.098 575.931C841.098 575.931 841.964 617.098 868.398 663.031C880.098 683.398 862.331 716.765 823.765 722.398" stroke="#423232" stroke-width="13.4786" stroke-miterlimit="10" stroke-linecap="round" stroke-linejoin="round"/>
<path opacity="0.42" d="M606.231 743.631C630.882 743.631 650.865 727.14 650.865 706.798C650.865 686.455 630.882 669.965 606.231 669.965C581.581 669.965 561.598 686.455 561.598 706.798C561.598 727.14 581.581 743.631 606.231 743.631Z" fill="#F2A5B2"/>
<path opacity="0.42" d="M926.031 670.831C924.731 695.098 925.165 718.931 923.431 742.765C904.365 738.431 890.498 724.131 890.498 707.231C890.498 689.031 905.664 674.298 926.031 670.831Z" fill="#F2A5B2"/>
<path d="M780.52 936C780.52 936 715.52 955.067 625.387 925.6C535.253 896.133 447.287 818.567 447.287 818.567C447.287 818.567 418.687 819 407.854 840.667C397.454 862.333 397.887 906.967 381.42 919.1C377.52 921.7 366.687 924.733 350.653 929.067C324.653 936.433 286.087 947.7 247.087 969.8C218.053 986.267 188.587 1008.37 163.887 1038.7C152.62 1052.57 142.653 1068.17 133.987 1085.93C65.5202 1225.03 94.9868 1420.03 94.9868 1420.03H1154.05C1154.05 1420.03 1123.29 1179.1 1056.99 1099.8C990.687 1020.5 864.154 956.367 826.887 939.467V914.333C827.32 914.333 804.353 929.5 780.52 936Z" fill="#48D89E"/>
<mask id="mask1_32_1442" style="mask-type:alpha" maskUnits="userSpaceOnUse" x="88" y="818" width="1067" height="603">
<path d="M780.52 936C780.52 936 715.52 955.067 625.387 925.6C535.253 896.133 447.287 818.567 447.287 818.567C447.287 818.567 418.687 819 407.854 840.667C397.454 862.333 397.887 906.967 381.42 919.1C377.52 921.7 366.687 924.733 350.653 929.067C324.653 936.433 286.087 947.7 247.087 969.8C218.053 986.267 188.587 1008.37 163.887 1038.7C152.62 1052.57 142.653 1068.17 133.987 1085.93C65.5202 1225.03 94.9868 1420.03 94.9868 1420.03H1154.05C1154.05 1420.03 1123.29 1179.1 1056.99 1099.8C990.687 1020.5 864.154 956.367 826.887 939.467V914.333C827.32 914.333 804.353 929.5 780.52 936Z" fill="#48D89E"/>
</mask>
<g mask="url(#mask1_32_1442)">
<path d="M265.72 1101.53C291.088 1101.53 311.653 1080.97 311.653 1055.6C311.653 1030.23 291.088 1009.67 265.72 1009.67C240.352 1009.67 219.787 1030.23 219.787 1055.6C219.787 1080.97 240.352 1101.53 265.72 1101.53Z" fill="#FCED7E"/>
<path d="M527.02 1080.3C552.388 1080.3 572.954 1059.73 572.954 1034.37C572.954 1009 552.388 988.433 527.02 988.433C501.652 988.433 481.087 1009 481.087 1034.37C481.087 1059.73 501.652 1080.3 527.02 1080.3Z" fill="#FCED7E"/>
<path d="M724.62 982.8C749.988 982.8 770.553 962.235 770.553 936.867C770.553 911.499 749.988 890.933 724.62 890.933C699.252 890.933 678.687 911.499 678.687 936.867C678.687 962.235 699.252 982.8 724.62 982.8Z" fill="#FCED7E"/>
<path d="M445.553 1305.2C470.922 1305.2 491.487 1284.63 491.487 1259.27C491.487 1233.9 470.922 1213.33 445.553 1213.33C420.185 1213.33 399.62 1233.9 399.62 1259.27C399.62 1284.63 420.185 1305.2 445.553 1305.2Z" fill="#FCED7E"/>
<path d="M980.287 1281.8C1005.66 1281.8 1026.22 1261.23 1026.22 1235.87C1026.22 1210.5 1005.66 1189.93 980.287 1189.93C954.919 1189.93 934.353 1210.5 934.353 1235.87C934.353 1261.23 954.919 1281.8 980.287 1281.8Z" fill="#FCED7E"/>
<path d="M727.22 1244.53C752.588 1244.53 773.153 1223.97 773.153 1198.6C773.153 1173.23 752.588 1152.67 727.22 1152.67C701.852 1152.67 681.287 1173.23 681.287 1198.6C681.287 1223.97 701.852 1244.53 727.22 1244.53Z" fill="#FCED7E"/>
<path d="M944.753 1058.2C970.122 1058.2 990.687 1037.64 990.687 1012.27C990.687 986.899 970.122 966.333 944.753 966.333C919.385 966.333 898.82 986.899 898.82 1012.27C898.82 1037.64 919.385 1058.2 944.753 1058.2Z" fill="#FCED7E"/>
</g>
<path d="M827.321 939.467C827.321 939.467 832.954 978.467 822.987 1000.57C806.954 1036.97 695.587 1078.57 560.821 1030.03C453.787 991.467 401.354 938.167 400.054 929.934" stroke="#329369" stroke-width="13.4786" stroke-miterlimit="10" stroke-linecap="round" stroke-linejoin="round"/>
<path d="M481.087 862.767C478.921 865.367 476.754 868.834 475.021 873.167C468.954 887.9 467.221 918.667 467.221 918.667" stroke="#329369" stroke-width="13.4786" stroke-miterlimit="10" stroke-linecap="round" stroke-linejoin="round"/>
<path d="M554.321 907.4C552.587 910.867 550.854 914.767 549.987 919.1C547.821 930.367 545.221 965.9 545.221 965.9" stroke="#329369" stroke-width="13.4786" stroke-miterlimit="10" stroke-linecap="round" stroke-linejoin="round"/>
<path d="M627.988 937.733C627.121 941.2 626.254 945.533 625.821 950.733C624.954 956.8 625.388 993.633 625.388 993.633" stroke="#329369" stroke-width="13.4786" stroke-miterlimit="10" stroke-linecap="round" stroke-linejoin="round"/>
<path d="M706.854 955.067C707.721 965.033 708.154 978.9 706.854 995.8" stroke="#329369" stroke-width="13.4786" stroke-miterlimit="10" stroke-linecap="round" stroke-linejoin="round"/>
<path d="M773.154 951.6C774.454 959.834 775.754 971.1 776.188 985.4" stroke="#329369" stroke-width="13.4786" stroke-miterlimit="10" stroke-linecap="round" stroke-linejoin="round"/>
<path d="M433.854 820.3C423.454 824.2 409.587 834.6 404.387 864.933" stroke="#329369" stroke-width="13.4786" stroke-miterlimit="10" stroke-linecap="round" stroke-linejoin="round"/>
<path d="M878.453 965.033C856.353 952.9 838.153 944.233 827.32 939.466V914.333" stroke="#329369" stroke-width="13.4786" stroke-miterlimit="10" stroke-linecap="round" stroke-linejoin="round"/>
<path d="M745.802 526.549C755.217 527.849 762.491 517.882 759.068 508.349C757.356 503.149 754.361 498.382 749.654 495.349C735.104 486.249 680.759 485.382 652.089 506.182C626.841 525.249 703.011 520.482 745.802 526.549Z" fill="#423232"/>
<path d="M864.334 531.315C856.631 531.315 851.924 521.349 855.775 513.115C857.915 508.782 860.91 504.882 865.189 502.715C878.455 496.215 913.972 500.115 929.805 522.215C943.926 541.715 899.851 530.882 864.334 531.315Z" fill="#423232"/>
<path d="M730.824 581.149C703.437 567.282 660.217 577.682 660.217 577.682" stroke="#423232" stroke-width="13.4786" stroke-miterlimit="10" stroke-linecap="round" stroke-linejoin="round"/>
<path d="M899.854 589.816C899.854 589.816 888.728 577.682 847.648 587.216" stroke="#423232" stroke-width="13.4786" stroke-miterlimit="10" stroke-linecap="round" stroke-linejoin="round"/>
<path d="M825.911 779.139C825.911 779.139 768.852 752.631 741.445 767.008" stroke="#423232" stroke-width="13.4786" stroke-miterlimit="10" stroke-linecap="round" stroke-linejoin="round"/>
<path d="M766.187 939.663C797.82 931.43 825.987 917.13 848.954 897.196C951.22 808.796 910.487 711.296 931.72 614.23C938.654 583.03 942.554 558.763 945.154 539.263C941.687 538.83 937.787 538.396 933.887 537.53C918.287 535.363 907.887 521.063 909.62 505.463C910.487 498.963 910.92 492.463 911.354 485.53C909.62 485.096 910.054 485.096 908.32 485.096C905.72 493.33 902.687 501.996 900.52 510.23C896.62 523.23 884.054 531.463 871.054 530.596H870.62C855.454 529.296 844.187 516.73 844.187 501.563C844.62 490.73 844.62 479.896 845.054 469.063C843.32 468.63 844.187 469.063 842.454 468.63C840.287 479.896 838.12 491.163 835.954 502.863C833.354 517.163 820.787 527.13 806.487 526.263C769.22 524.53 732.387 524.096 699.02 524.096C684.287 524.096 672.154 513.263 670.854 498.53C668.687 479.463 665.654 460.396 660.454 440.896C654.82 458.23 654.82 476.43 655.687 495.063C656.554 511.096 643.987 524.53 627.954 524.963C589.387 525.83 563.387 527.13 559.054 527.563C560.354 586.93 546.92 652.796 523.087 608.163C521.354 605.13 520.054 602.096 518.32 598.196C508.354 580.43 488.42 559.196 450.72 563.963C397.854 570.896 378.354 693.53 489.287 734.263C489.72 743.363 491.887 752.463 495.787 761.996C512.687 803.163 520.054 837.396 520.054 865.563C520.054 1028.93 252.687 960.896 177.287 812.696C148.254 755.063 147.82 685.73 202.854 612.93C337.62 447.83 297.32 510.663 327.22 412.73C376.187 252.396 487.987 201.263 636.187 202.563C636.187 202.563 882.754 202.563 948.187 262.363C1013.62 322.163 991.087 508.93 985.454 525.83C983.72 531.03 979.387 534.063 974.62 536.23C972.02 621.596 980.687 651.496 1011.02 720.396C1077.32 872.063 952.087 1016.36 766.187 939.663Z" fill="#423232"/>
<path d="M523.087 608.596C521.353 605.562 520.053 602.529 518.32 598.629C520.053 602.096 521.787 605.562 523.087 608.596Z" fill="#FEE4BF"/>
<path d="M467.544 705.467V779.134" stroke="#FFDE55" stroke-width="13.4786" stroke-miterlimit="10" stroke-linecap="round" stroke-linejoin="round"/>
<path d="M526.044 877.933C514.344 889.633 498.311 897 480.111 897C445.011 897 415.978 868.4 415.978 832.867C415.978 797.767 444.578 768.734 480.111 768.734C497.878 768.734 514.344 776.1 526.044 787.8C518.244 783.467 509.578 780.867 500.044 780.867C471.444 780.867 448.044 804.267 448.044 832.867C448.044 861.467 471.444 884.867 500.044 884.867C509.578 885.3 518.244 882.7 526.044 877.933Z" fill="#FFDE55"/>
<path d="M467.544 858.867C481.664 858.867 493.111 847.42 493.111 833.3C493.111 819.18 481.664 807.734 467.544 807.734C453.424 807.734 441.978 819.18 441.978 833.3C441.978 847.42 453.424 858.867 467.544 858.867Z" fill="#FF6B57"/>
<path d="M961.978 788.667C954.178 784.334 945.511 781.734 935.978 781.734C929.045 781.734 922.978 783.034 916.911 785.634C917.778 780.434 919.078 775.234 919.511 770.034C936.411 770.467 951.145 777.4 961.978 788.667Z" fill="#FFDE55"/>
<path d="M962.411 877.934C950.711 889.634 934.677 897 916.477 897C898.277 897 881.377 889.2 869.677 876.634C876.611 868.834 882.677 861.034 888.311 853.234C896.111 871.867 914.744 884.434 935.977 884.434C945.511 885.3 954.611 882.7 962.411 877.934Z" fill="#FFDE55"/>
<path d="M929.478 833.301C929.478 847.601 918.211 858.867 903.911 858.867C898.278 858.867 893.078 857.134 888.745 853.667C898.711 838.934 906.078 823.767 910.845 809.034C921.245 811.634 929.478 821.601 929.478 833.301Z" fill="#FF6B57"/>
</g>
</svg>
