<svg width="500" height="500" viewBox="0 0 500 500" fill="none" xmlns="http://www.w3.org/2000/svg">
<path d="M226.41 16.8697C182.93 25.6197 133.52 49.7997 113.32 91.7397C82.79 155.1 27.88 154.46 13.77 274.45C11.6309 291.956 11.3962 309.643 13.07 327.2C13.9255 335.786 15.3216 344.309 17.25 352.72C34.31 426.87 90.56 473.13 155 486.55C239.78 504.21 290 451.13 320.08 416.21C350.16 381.29 450 349.4 464.8 231.55C467.134 213.569 467.386 195.378 465.55 177.34C461.19 136.19 444 92.3397 413.22 63.4897C410.907 61.3297 408.523 59.2364 406.07 57.2097C358.17 17.5597 285.69 4.93972 226.41 16.8697Z" fill="#7CC529"/>
<path opacity="0.7" d="M226.41 16.8697C182.93 25.6197 133.52 49.7997 113.32 91.7397C82.79 155.1 27.88 154.46 13.77 274.45C11.6309 291.956 11.3962 309.643 13.07 327.2C13.9255 335.786 15.3216 344.309 17.25 352.72C34.31 426.87 90.56 473.13 155 486.55C239.78 504.21 290 451.13 320.08 416.21C350.16 381.29 450 349.4 464.8 231.55C467.134 213.569 467.386 195.378 465.55 177.34C461.19 136.19 444 92.3397 413.22 63.4897C410.907 61.3297 408.523 59.2364 406.07 57.2097C358.17 17.5597 285.69 4.93972 226.41 16.8697Z" fill="white"/>
<path d="M6.47 312.37L472.79 265.43" stroke="#263238" stroke-linecap="round" stroke-linejoin="round"/>
<path d="M420.22 159.859C413.07 156.959 399 152.489 397.43 155.169C395.86 157.849 390.29 163.169 390.29 163.169C390.29 163.169 387.16 154.239 384.48 153.789C381.8 153.339 370.41 153.119 367.95 153.789C365.49 154.459 374.43 160.709 382.02 165.409C383.649 166.415 385.35 167.297 387.11 168.049C386.262 172.07 386.003 176.193 386.34 180.289C387.05 186.499 387.16 203.219 384.15 213.749C380.85 225.299 375.87 263.839 378.08 277.079L380.6 276.659C378.44 263.659 383.35 225.829 386.6 214.449C389.71 203.579 389.6 186.379 388.87 179.999C388.578 176.32 388.8 172.617 389.53 168.999C393.25 170.309 396.16 170.799 398.53 172.339C400.505 173.499 402.247 175.015 403.67 176.809C403.67 176.809 404.12 174.129 405.23 174.349C406.34 174.569 421.76 178.149 424.44 177.699C427.12 177.249 427.37 162.759 420.22 159.859Z" fill="#263238"/>
<path d="M370.94 272.699C370.88 272.399 365.11 243.529 363.34 233.799C362.44 228.799 361.2 215.409 360.01 202.419C358.84 189.769 357.64 176.699 356.87 173.079C355.986 168.914 354.028 165.053 351.19 161.879L352.99 160.079C356.187 163.595 358.39 167.899 359.37 172.549C360.16 176.309 361.32 188.879 362.55 202.179C363.74 215.119 364.97 228.489 365.85 233.349C367.62 243.049 373.38 271.899 373.44 272.189L370.94 272.699Z" fill="#263238" stroke="#263238" stroke-linecap="round" stroke-linejoin="round"/>
<path d="M378.61 271.589L376.06 271.509C376.06 271.439 376.28 264.039 376.73 257.609C377.16 251.379 376.97 188.469 376.73 156.299C376.5 127.359 376.5 89.2091 376.5 88.8291H379C379 89.2091 379 127.349 379.23 156.279C379.43 183.599 379.68 251.089 379.23 257.789C378.83 264.169 378.61 271.519 378.61 271.589Z" fill="#263238" stroke="#263238" stroke-linecap="round" stroke-linejoin="round"/>
<path d="M380.15 271.1L377.64 270.66C379.64 259.26 390.13 219.1 404.18 197.37C418.34 175.47 430.25 159.69 430.37 159.54L432.37 161.08C432.26 161.23 420.37 176.94 406.29 198.75C392.48 220.16 382.15 259.84 380.15 271.1Z" fill="#263238" stroke="#263238" stroke-linecap="round" stroke-linejoin="round"/>
<path d="M432.53 151.79C432.182 148.985 431.133 146.312 429.479 144.019C427.826 141.726 425.622 139.886 423.07 138.67C414.22 134.4 409.34 133.18 408.12 144.77C407.409 152.182 407.509 159.65 408.42 167.04C408.42 167.04 415.14 155.15 420.32 153.62C425.5 152.09 429.17 156.06 426.42 157.62C423.67 159.18 414.83 164.62 411.78 166.77C408.73 168.92 409.34 169.77 411.47 173.77C413.6 177.77 417.88 187.77 417.88 187.77C417.88 187.77 421.88 170.38 423.68 167.33C425.48 164.28 431.92 167.33 429.78 172.52C427.64 177.71 421.85 191.43 421.85 191.43C421.85 191.43 429.78 199.98 433.75 202.43C437.72 204.88 440.75 213.72 440.75 213.72C440.75 213.72 443.5 210.97 450.82 208.22C458.14 205.47 468.52 200.9 467.91 197.85C467.3 194.8 464.55 191.14 458.76 183.51C452.97 175.88 444.11 168.51 447.76 168.26C451.41 168.01 470.95 177.1 472.76 181.37C474.57 185.64 472.15 193.88 472.15 193.88C472.15 193.88 478 186 478 181.69C477.925 178.967 477.079 176.321 475.56 174.06C475.56 174.06 463.05 164.6 457.86 161.86C452.67 159.12 452.37 156.06 453.86 156.06C455.35 156.06 471.56 160.33 474.61 164.3C476.357 166.404 477.526 168.927 478 171.62C478.3 172.54 474.34 150.26 469.15 145.69C463.96 141.12 452.98 137.45 446.57 139.89C440.16 142.33 437.42 144.16 436.5 145.99C435.299 148.005 433.973 149.942 432.53 151.79Z" fill="#7CC529" stroke="#263238" stroke-linecap="round" stroke-linejoin="round"/>
<path d="M455.17 184.139C455.17 184.139 449 176.379 447.81 178.999C446.62 181.619 456 193.689 457 192.699C458 191.709 458 187.919 455.17 184.139Z" stroke="#263238" stroke-linecap="round" stroke-linejoin="round"/>
<path d="M435.67 153.299C435.67 153.299 456.17 149.519 462.53 151.509" stroke="#263238" stroke-linecap="round" stroke-linejoin="round"/>
<path d="M436.27 158.27C436.27 158.27 453 162.45 459.55 167.63" stroke="#263238" stroke-linecap="round" stroke-linejoin="round"/>
<path d="M435.87 159.859C435.87 159.859 426.51 161.059 421.94 164.639C417.37 168.219 416.94 169.419 416.94 169.419" stroke="#263238" stroke-linecap="round" stroke-linejoin="round"/>
<path d="M418.16 147.92C420.466 148.539 422.674 149.478 424.72 150.71C427.581 152.226 430.599 153.427 433.72 154.29C433.72 154.29 441 166.23 442.63 176.78C444.26 187.33 442.83 205.44 442.63 206.23" stroke="#263238" stroke-linecap="round" stroke-linejoin="round"/>
<path d="M440.24 169.22C437.436 173.943 434.976 178.862 432.88 183.94" stroke="#263238" stroke-linecap="round" stroke-linejoin="round"/>
<path d="M378.75 82.6496C377.962 79.7904 377.496 76.8522 377.36 73.8896C377.36 70.1096 381.36 64.8896 374.77 62.5496C368.18 60.2096 355.67 54.1896 353.28 51.0096C350.89 47.8296 350.69 45.2396 345.12 44.4396C339.55 43.6396 334.77 43.8496 327.61 48.2196C320.45 52.5896 318.61 57.7796 318.61 57.7796C318.61 57.7796 321.4 55.7796 337.32 58.7796C353.24 61.7796 361.6 71.5196 357.42 71.9096C353.24 72.2996 330.79 62.1496 325.22 60.9996C319.65 59.8496 316.46 59.2096 313.08 62.7896C309.7 66.3696 308.7 74.3296 308.7 74.3296C308.7 74.3296 318.06 67.9596 329 68.9596C339.94 69.9596 357.06 78.7096 354.67 79.7096C352.28 80.7096 337.76 73.9296 327.41 75.5296C317.06 77.1296 310.69 78.1096 309.9 82.0896C309.11 86.0696 312.68 88.6596 312.68 88.6596C312.68 88.6596 310.49 84.8796 318.45 80.6596C326.41 76.4396 339.35 77.4796 339.35 78.4696C339.35 79.4596 331.99 78.6696 326.81 81.2596C321.63 83.8496 314.87 87.6296 317.06 89.0196C319.25 90.4096 324.23 93.5996 325.22 96.3796C326.21 99.1596 326.02 105.38 326.81 103.38C327.6 101.38 328.6 95.3796 330.39 94.2196C332.18 93.0596 351.89 93.8296 351.89 93.8296C351.89 93.8296 360 89.6196 361 87.6296C362 85.6396 362.39 82.2496 367 83.2496C371.61 84.2496 371.38 86.2496 368.79 90.6096C366.2 94.9696 359.44 99.9596 359.44 99.9596C359.44 99.9596 370.38 93.9596 375.36 93.3996C380.34 92.8396 383.12 90.8096 382.13 88.6196C381.14 86.4296 379.34 84.4396 382.33 84.0396C385.32 83.6396 389.69 83.6496 390.09 86.0396C390.49 88.4296 386.5 91.0396 386.5 91.0396C386.5 91.0396 402.62 86.6596 406.4 83.4796C410.18 80.2996 413.4 78.0996 412.18 76.4796C410.96 74.8596 404.81 76.2796 404.81 76.2796C404.81 76.2796 399.04 71.5096 392.28 74.2796C385.52 77.0496 383.12 80.8496 381.93 81.8396C380.994 82.4648 379.871 82.7506 378.75 82.6496Z" fill="#7CC529" stroke="#263238" stroke-linecap="round" stroke-linejoin="round"/>
<path d="M350.69 56.3795C351.29 56.1795 359.45 64.5395 363.63 71.3095C367.81 78.0795 378.75 82.6495 378.75 82.6495C378.75 82.6495 363.63 81.4595 358.26 81.6495C352.89 81.8395 339.15 84.6495 334.18 88.2095" stroke="#263238" stroke-linecap="round" stroke-linejoin="round"/>
<path d="M381.94 81.8497C381.94 81.8497 397.94 78.3697 399.66 80.8497" stroke="#263238" stroke-linecap="round" stroke-linejoin="round"/>
<path d="M370.95 82.1791C370.95 82.1791 360.26 78.3691 355.38 75.7691C350.5 73.1691 334.76 65.2291 322.54 65.3891" stroke="#263238" stroke-linecap="round" stroke-linejoin="round"/>
<path d="M353.65 155C353.65 155 360.8 145.39 358.79 144.05C356.78 142.71 336.67 147.85 331.54 149.41C326.41 150.97 317.02 151.2 306.54 152.99C296.06 154.78 294.7 157.9 291.8 158.12C288.9 158.34 286.88 158.12 285.09 159.02L283.31 159.91C285.456 160.465 287.547 161.211 289.56 162.14C291.56 163.26 298.05 163.48 298.72 164.38C299.39 165.28 309 169.52 320.39 172.38C331.78 175.24 347.64 163.67 352.11 160.99C356.58 158.31 360.37 156.07 360.82 153.84C361.27 151.61 353.65 155 353.65 155Z" fill="#7CC529" stroke="#263238" stroke-linecap="round" stroke-linejoin="round"/>
<path d="M353.65 155C353.65 155 349.18 159.69 346.95 160.13C344.72 160.57 331.09 164.13 320.59 164.13C310.09 164.13 292.67 161.23 292.67 161.23" stroke="#263238" stroke-linecap="round" stroke-linejoin="round"/>
<path d="M342.71 150.479C342.71 150.479 345.39 155.39 347.17 156.96L349 158.52" stroke="#263238" stroke-linecap="round" stroke-linejoin="round"/>
<path d="M342.93 161.199C342.93 161.199 333.77 155.839 329.08 154.719C326.459 154.071 323.778 153.699 321.08 153.609" stroke="#263238" stroke-linecap="round" stroke-linejoin="round"/>
<path d="M329.08 164.1C324.699 161.961 320.036 160.459 315.23 159.64C306.74 158.07 304.73 157.64 304.73 157.64" stroke="#263238" stroke-linecap="round" stroke-linejoin="round"/>
<path d="M341.14 161.649C341.14 161.649 336.23 166.559 330.42 168.129" stroke="#263238" stroke-linecap="round" stroke-linejoin="round"/>
<path d="M410.91 126.89C410.91 126.89 420.12 120.24 416.79 118.45C413.46 116.66 392.48 121.52 371.79 124.85C351.1 128.18 345.17 132.78 341.59 136.36C338.01 139.94 337.5 145.36 337.5 145.36C337.5 145.36 344.41 146.12 345.69 146.89C346.97 147.66 348.5 141.77 360.02 135.89C371.54 130.01 379.21 126.17 374.09 132.31C368.97 138.45 362.58 145.1 357.97 146.38L353.36 147.66C353.36 147.66 365.36 152.01 367.95 150.73C370.54 149.45 386.88 127.73 388.95 127.96C391.02 128.19 391.25 129.75 387.67 134.1C384.09 138.45 376.67 144.33 376.67 144.33C376.67 144.33 392.79 144.84 393.56 143.57C394.33 142.3 404 125.87 404.77 129.2C405.54 132.53 404.77 133.55 403.23 135.59C401.69 137.63 398.37 141.48 398.37 141.48C398.37 141.48 428.31 146.08 428.82 143.27C429.33 140.46 427 134.57 421.65 132L410.91 126.89Z" fill="#7CC529" stroke="#263238" stroke-linecap="round" stroke-linejoin="round"/>
<path d="M410.91 126.889C410.91 126.889 394.27 123.819 385.06 125.099" stroke="#263238" stroke-linecap="round" stroke-linejoin="round"/>
<path d="M367 270.389C367 270.319 364.48 262.799 359.61 245.769C356.478 234.497 354.267 222.989 353 211.359L355.54 211.119C356.768 222.589 358.928 233.94 362 245.059C366.84 262.059 369.33 269.509 369.35 269.579L367 270.389Z" fill="#263238"/>
<path d="M378.67 205.999C378.67 205.999 374.83 195.509 367.15 195.769C359.47 196.029 357.43 208.259 362 218.999C366.57 229.739 377.61 236.149 383.24 239.469C388.87 242.789 401.41 250.729 403.46 252.519C405.51 254.309 406.53 246.129 409.34 239.469C412.15 232.809 414 212.099 407.84 202.119C401.68 192.139 389.16 184.469 384.04 188.559C378.92 192.649 378.67 205.999 378.67 205.999Z" fill="#7CC529" stroke="#263238" stroke-linecap="round" stroke-linejoin="round"/>
<path d="M380.2 209C380.2 209 379.2 211.82 385.06 219C390.92 226.18 400.42 233.6 401.44 241.53" stroke="#263238" stroke-linecap="round" stroke-linejoin="round"/>
<path d="M382.5 208.259C382.5 208.259 400.93 205.449 406 207.999" stroke="#263238" stroke-linecap="round" stroke-linejoin="round"/>
<path d="M379.69 212.1C379.69 212.1 372.78 218.24 371.76 224.39" stroke="#263238" stroke-linecap="round" stroke-linejoin="round"/>
<path d="M386.6 221.569C386.6 221.569 384.3 227.709 384.81 232.059" stroke="#263238" stroke-linecap="round" stroke-linejoin="round"/>
<path d="M393 226.689C393 226.689 402.72 227.459 404.51 231.809" stroke="#263238" stroke-linecap="round" stroke-linejoin="round"/>
<path d="M352.31 207C352.31 207 358.96 203.68 355.38 199.33C351.8 194.98 345.38 196.77 339.26 198.82C333.14 200.87 333.63 202.91 316.74 203.17C299.85 203.43 294 206.47 294 206.47C294 206.47 302.7 206.47 308.07 210.57C313.44 214.67 341.07 219.27 347.99 220.29C354.91 221.31 364.37 217.48 365.39 211.85C366.41 206.22 352.31 207 352.31 207Z" fill="#7CC529" stroke="#263238" stroke-linecap="round" stroke-linejoin="round"/>
<path d="M306 206.73C306 206.73 308.31 207.73 322.64 209.03C331.518 209.786 340.454 209.45 349.25 208.03C345.325 206.333 341.273 204.949 337.13 203.89" stroke="#263238" stroke-linecap="round" stroke-linejoin="round"/>
<path d="M326.4 206.1C326.4 206.1 334.4 207.89 338.01 209.67C338.01 209.67 330.87 212.36 323.94 211.67" stroke="#263238" stroke-linecap="round" stroke-linejoin="round"/>
<path d="M349.24 208C349.24 208 346.06 213.91 343.15 215" stroke="#263238" stroke-linecap="round" stroke-linejoin="round"/>
<path d="M330 265.899H404.76C404.76 265.899 413.91 291.529 410.25 308.619C409.96 309.999 409.61 311.379 409.25 312.749C406.683 321.522 401.336 329.224 394.014 334.695C386.692 340.167 377.791 343.113 368.65 343.089H366.53C344.34 343.089 325.53 325.989 324.31 303.829C324.31 303.289 324.29 302.749 324.25 302.209C323.91 280.549 330 265.899 330 265.899Z" fill="#263238" stroke="#263238" stroke-linecap="round" stroke-linejoin="round"/>
<path d="M367.44 275.75C346.768 275.75 330.01 271.881 330.01 267.11C330.01 262.338 346.768 258.47 367.44 258.47C388.112 258.47 404.87 262.338 404.87 267.11C404.87 271.881 388.112 275.75 367.44 275.75Z" fill="#263238" stroke="#263238" stroke-linecap="round" stroke-linejoin="round"/>
<path d="M62.13 417.64C62.13 417.64 65.68 413.35 72.58 406.64C79.48 399.93 73.51 399.55 62.69 396.38C51.87 393.21 39.94 385.75 49.08 373.25C58.22 360.75 77.24 362.44 79.29 363.74" stroke="#263238" stroke-width="2" stroke-linecap="round" stroke-linejoin="round"/>
<path d="M66.24 419.32C66.24 419.32 65.86 415.59 62.13 415.78C58.4 415.97 58.22 420.63 58.22 420.63L66.24 419.32Z" fill="white" stroke="#263238" stroke-linecap="round" stroke-linejoin="round"/>
<path d="M71.09 418C76.162 418.034 81.1524 419.28 85.6455 421.633C90.1385 423.987 94.004 427.38 96.92 431.53C97.14 431.86 97.36 432.19 97.57 432.53C102.57 440.53 103.57 445.95 98.88 454.35C94.19 462.75 77.99 463.3 66.8 461.06C55.61 458.82 48.15 440.55 46.09 436.81C44.03 433.07 41.99 428.05 44.79 424.32C47.59 420.59 55.23 418 67.36 418H71.09Z" fill="white" stroke="#263238" stroke-linecap="round" stroke-linejoin="round"/>
<path d="M46.09 436.851C44.64 434.211 43.19 430.911 43.47 427.851C46.2273 429.416 48.6935 431.446 50.76 433.851C56.35 440.011 61.39 456.051 77.99 457.721C94.05 459.351 100.68 449.971 101.09 449.361C100.52 451.096 99.7793 452.771 98.88 454.361C94.21 462.751 77.99 463.311 66.8 461.071C55.61 458.831 48.15 440.581 46.09 436.851Z" fill="white" stroke="#263238" stroke-linecap="round" stroke-linejoin="round"/>
<path d="M116.28 414.07L53.43 334.29V326.18L116.97 399.23L116.28 414.07Z" fill="#DBDBDB" stroke="#263238" stroke-linecap="round" stroke-linejoin="round"/>
<path d="M334.74 367.689L334.33 379.639L116.28 414.069L116.05 400.849L334.74 367.689Z" fill="#263238" stroke="#263238" stroke-linecap="round" stroke-linejoin="round"/>
<path d="M243.95 271.41L340.74 325.44L114.35 352.95L49.72 288.32L243.95 271.41Z" fill="white" stroke="#263238" stroke-linecap="round" stroke-linejoin="round"/>
<path d="M236.66 282.68C236.66 282.68 271.13 313.51 270.8 315.83C270.47 318.15 268.48 321.83 263.18 323.78C257.88 325.73 185.95 333.78 180.31 334.06C174.67 334.34 141.86 328.42 131.26 321.13C120.66 313.84 120.65 316.13 124.26 308.54C127.87 300.95 147.79 292.29 147.79 292.29L236.66 282.68Z" fill="#DBDBDB" stroke="#263238" stroke-linecap="round" stroke-linejoin="round"/>
<path d="M244.95 280C244.95 280 237.95 299.23 209.48 302.21C181.01 305.19 168.05 295.21 168.05 295.21L244.95 280Z" fill="#263238" stroke="#263238" stroke-linecap="round" stroke-linejoin="round"/>
<path d="M79.55 244.899C79.55 244.899 83.2 284.339 84.19 285.999C85.18 287.659 88.5 288.649 91.19 289.309C93.88 289.969 141.9 300.249 141.9 300.249L141.57 290.639L79.55 244.899Z" fill="#B8B8B8" stroke="#263238" stroke-linecap="round" stroke-linejoin="round"/>
<path d="M141.86 300.249C141.86 300.249 283.4 282.999 300.63 281.359L300.96 273.359L141.53 290.599L141.86 300.249Z" fill="#263238" stroke="#263238" stroke-linecap="round" stroke-linejoin="round"/>
<path d="M317.54 69.8898L334.11 270.75C334.11 270.75 288.04 278.7 237.65 285.33C187.26 291.96 113 293 113 293L90.82 64.5798C90.82 64.5798 180.31 60.2798 219.42 61.5798C258.53 62.8798 317.54 69.8898 317.54 69.8898Z" fill="#E8E8E8" stroke="#263238" stroke-linecap="round" stroke-linejoin="round"/>
<path d="M301.29 92.4295C301.29 92.4295 314.88 204.789 314.55 236.939L134.24 250.859C134.24 250.859 125 109.329 122.31 90.7694L220.09 89.4395L301.29 92.4295Z" fill="#7CC529" stroke="#263238" stroke-linecap="round" stroke-linejoin="round"/>
<path d="M301.29 92.4297C301.29 92.4297 314.88 204.79 314.55 236.94L310.33 237.27C310.4 232.14 310.33 219.63 308.92 193.85C306.92 157.39 297.98 96.0697 297.98 96.0697C297.98 96.0697 260.86 93.4197 221.08 92.4297C183.76 91.4897 129.22 93.1897 122.64 93.4297C122.52 92.4297 122.41 91.4997 122.31 90.7997L220.09 89.4697L301.29 92.4297Z" fill="#263238" stroke="#263238" stroke-linecap="round" stroke-linejoin="round"/>
<path d="M179.48 293.29C171.881 293.29 165.72 286.834 165.72 278.87C165.72 270.906 171.881 264.45 179.48 264.45C187.079 264.45 193.24 270.906 193.24 278.87C193.24 286.834 187.079 293.29 179.48 293.29Z" fill="#E8E8E8" stroke="#263238" stroke-linecap="round" stroke-linejoin="round"/>
<path d="M174.35 286.659C172.334 286.659 170.7 285.025 170.7 283.009C170.7 280.994 172.334 279.359 174.35 279.359C176.366 279.359 178 280.994 178 283.009C178 285.025 176.366 286.659 174.35 286.659Z" fill="#E8E8E8" stroke="#263238" stroke-linecap="round" stroke-linejoin="round"/>
<path d="M144.85 280.69C144.848 281.347 145.041 281.991 145.405 282.538C145.769 283.086 146.288 283.513 146.895 283.765C147.502 284.018 148.17 284.084 148.815 283.957C149.46 283.829 150.053 283.512 150.518 283.047C150.983 282.583 151.299 281.99 151.427 281.345C151.554 280.7 151.488 280.032 151.235 279.425C150.983 278.818 150.556 278.299 150.008 277.935C149.461 277.571 148.817 277.378 148.16 277.38C147.283 277.383 146.443 277.732 145.822 278.352C145.202 278.972 144.853 279.813 144.85 280.69Z" fill="#E8E8E8" stroke="#263238" stroke-linecap="round" stroke-linejoin="round"/>
<path d="M132.58 282.35C132.586 283.005 132.786 283.644 133.154 284.186C133.522 284.728 134.043 285.149 134.65 285.396C135.257 285.643 135.924 285.704 136.566 285.573C137.208 285.441 137.797 285.122 138.258 284.657C138.719 284.192 139.033 283.6 139.158 282.957C139.284 282.314 139.216 281.648 138.964 281.043C138.712 280.438 138.287 279.921 137.741 279.557C137.196 279.194 136.555 279 135.9 279C135.461 279 135.027 279.087 134.623 279.256C134.218 279.424 133.85 279.672 133.542 279.983C133.233 280.294 132.989 280.664 132.824 281.07C132.659 281.477 132.576 281.911 132.58 282.35Z" fill="#E8E8E8" stroke="#263238" stroke-linecap="round" stroke-linejoin="round"/>
<path d="M90.82 64.5801L81.21 88.7801L104.74 292.96H113.03L90.82 64.5801Z" fill="white" stroke="#263238" stroke-linecap="round" stroke-linejoin="round"/>
<path d="M85.52 127.229L60.33 151.759L67.95 240.259C75.2525 246.047 82.0198 252.48 88.17 259.479C99.11 271.739 103.08 276.379 103.08 276.379L85.52 127.229Z" fill="white" stroke="#263238" stroke-linecap="round" stroke-linejoin="round"/>
<path d="M114.35 352.95L115.17 401.16L50.38 325.11L49.72 288.32L114.35 352.95Z" fill="white" stroke="#263238" stroke-linecap="round" stroke-linejoin="round"/>
<path d="M115.17 401.159L339.41 367.539L340.74 325.439L114.35 352.949L115.17 401.159Z" fill="#E8E8E8" stroke="#263238" stroke-linecap="round" stroke-linejoin="round"/>
<path d="M323.72 344.38L323.52 351.56L316.34 352.75L316.15 345.78L323.72 344.38Z" fill="#7CC529" stroke="#263238" stroke-linecap="round" stroke-linejoin="round"/>
<path d="M218.87 357.63L267.4 351.15L267.71 348.28L218.48 354.66L218.87 357.63Z" fill="#263238" stroke="#263238" stroke-linecap="round" stroke-linejoin="round"/>
<path d="M128.57 369.19L149.71 366.42L149.51 363.8L165.01 361.51L168.19 364.13L208.1 359.03L207.72 356.05L169.1 360.99L165.89 358.35L147.53 361.5L147.73 364.07L128.18 366.22L128.57 369.19Z" fill="#263238" stroke="#263238" stroke-linecap="round" stroke-linejoin="round"/>
<path d="M185.18 356.84L174.3 357.77C174.3 357.77 175.53 360.42 175.83 360.42C176.13 360.42 186.22 360.01 186.22 360.01L185.18 356.84Z" fill="white" stroke="#263238" stroke-linecap="round" stroke-linejoin="round"/>
<path d="M174.31 357.769L170.54 355.939L171.35 358.079L175.83 360.419L174.31 357.769Z" fill="white" stroke="#263238" stroke-linecap="round" stroke-linejoin="round"/>
<path d="M170.54 355.94L183.78 354.31C184.254 353.201 185.03 352.248 186.02 351.56C187.45 350.74 189.48 350.56 191.32 353.8L191.93 355.43L185.18 356.84L174.3 357.77L170.54 355.94Z" fill="white" stroke="#263238" stroke-linecap="round" stroke-linejoin="round"/>
<path d="M185.18 356.84C185.18 359.1 186.7 360.93 188.57 360.93C190.44 360.93 192 359.1 192 356.84C192 354.58 190.48 352.75 188.61 352.75C186.74 352.75 185.18 354.58 185.18 356.84Z" fill="white" stroke="#263238" stroke-linecap="round" stroke-linejoin="round"/>
<path d="M168.35 365.52V375.11L165.59 363.35" stroke="#263238" stroke-linecap="round" stroke-linejoin="round"/>
<path d="M168.35 375.11L147.58 378.16L147.44 367.85" stroke="#263238" stroke-linecap="round" stroke-linejoin="round"/>
<path d="M147.44 360.879L147.29 356.229" stroke="#263238" stroke-linecap="round" stroke-linejoin="round"/>
<path d="M169.1 360.99L169.08 353.91" stroke="#263238" stroke-linecap="round" stroke-linejoin="round"/>
<path d="M213.95 347.81L213.23 372.93" stroke="#263238" stroke-linecap="round" stroke-linejoin="round"/>
<path d="M197.4 371.62L170.09 375.11" stroke="#263238" stroke-linecap="round" stroke-linejoin="round"/>
<path d="M197.83 362.04L197.98 370.32" stroke="#263238" stroke-linecap="round" stroke-linejoin="round"/>
<path d="M270.45 346.5L269.72 358.7L215.84 366.54L215.99 353.62L270.45 346.5Z" stroke="#263238" stroke-linecap="round" stroke-linejoin="round"/>
<path d="M231.31 361.29L225.15 362.21V365.89L231.31 365.15V361.29Z" fill="white" stroke="#263238" stroke-linecap="round" stroke-linejoin="round"/>
<path d="M225.15 362.21L223.41 360.74V364.14L225.15 365.89V362.21Z" fill="white" stroke="#263238" stroke-linecap="round" stroke-linejoin="round"/>
<path d="M223.41 360.74L229.56 359.92L231.31 361.29L225.15 362.21L223.41 360.74Z" fill="white" stroke="#263238" stroke-linecap="round" stroke-linejoin="round"/>
<path d="M272.36 375.11L274.44 339.16L123.7 358.88L124.16 395.98" stroke="#263238" stroke-linecap="round" stroke-linejoin="round"/>
<path d="M125.55 384.849L272.12 364.439" stroke="#263238" stroke-linecap="round" stroke-linejoin="round"/>
<path d="M276.53 363.75L338.22 354.7" stroke="#263238" stroke-linecap="round" stroke-linejoin="round"/>
<path d="M354.03 373L102.65 410.47L136.38 465.74L415.23 414.84L354.03 373Z" fill="white" stroke="#263238" stroke-linecap="round" stroke-linejoin="round"/>
<path d="M136.38 465.74L135.68 475.35L101.46 417.65L102.65 410.47L136.38 465.74Z" fill="white" stroke="#263238" stroke-linecap="round" stroke-linejoin="round"/>
<path d="M136.38 465.74L415.23 414.84L414.91 422.78L135.68 475.35L136.38 465.74Z" fill="#E8E8E8" stroke="#263238" stroke-linecap="round" stroke-linejoin="round"/>
<path d="M164.41 413.9L190.61 446.3V450.1L139.81 459.9L119.01 425.3L120.21 420.9L164.41 413.9Z" fill="#DBDBDB" stroke="#263238" stroke-linecap="round" stroke-linejoin="round"/>
<path d="M190.61 446.3L140.41 454.7L120.21 420.9L164.41 413.9L190.61 446.3Z" fill="#DBDBDB" stroke="#263238" stroke-linecap="round" stroke-linejoin="round"/>
<path d="M206.61 407.9L217.41 420.1L219.13 423.83L183.01 429.5L174.21 416.7L174.81 413.1L206.61 407.9Z" fill="#DBDBDB" stroke="#263238" stroke-linecap="round" stroke-linejoin="round"/>
<path d="M198.01 399.5L202.61 403.5L204.41 407.1L171.39 412.56L166.61 408.1L168.01 404.5L198.01 399.5Z" fill="#DBDBDB" stroke="#263238" stroke-linecap="round" stroke-linejoin="round"/>
<path d="M206.81 402.3L211.81 406.9L255.21 399.3L253.41 395.7L249.41 391.9L210.01 397.7L206.81 402.3Z" fill="#DBDBDB" stroke="#263238" stroke-linecap="round" stroke-linejoin="round"/>
<path d="M256.21 393.9L261.21 399.7L302.21 392.9L300.61 387.5L295.41 384.7L258.21 390.3L256.21 393.9Z" fill="#DBDBDB" stroke="#263238" stroke-linecap="round" stroke-linejoin="round"/>
<path d="M303.01 386.3L310.01 392.1L347.61 385.1L346.01 379.9L341.41 376.9L304.81 382.9L303.01 386.3Z" fill="#DBDBDB" stroke="#263238" stroke-linecap="round" stroke-linejoin="round"/>
<path d="M217.41 407.1L372.01 382.3L399.61 401.9L400.01 403.7L406.01 407.9L407.21 412.5L392.43 415.21L384.61 410.7L378.61 411.5L381.81 417.5L272.41 437.1L266.01 431.3L256.81 432.5L260.81 439.3L241.41 443.1L213.82 411.62L217.41 407.1Z" fill="#DBDBDB" stroke="#263238" stroke-linecap="round" stroke-linejoin="round"/>
<path d="M221.5 413.32L379.69 387.79L385.61 391.84L248.6 414.26L255.29 420.64L231.62 424.22L221.5 413.32Z" fill="white" stroke="#263238" stroke-linecap="round" stroke-linejoin="round"/>
<path d="M253.58 415.35L258.41 420.02L372.06 400.71L367.08 396.98L253.58 415.35Z" fill="white" stroke="#263238" stroke-linecap="round" stroke-linejoin="round"/>
<path d="M369.42 403.36L374.87 406.63L269.46 424.38L264.79 421.11L369.42 403.36Z" fill="white" stroke="#263238" stroke-linecap="round" stroke-linejoin="round"/>
<path d="M281.91 425L286.59 428.58L273.35 431.23L269.15 427.34L281.91 425Z" fill="white" stroke="#263238" stroke-linecap="round" stroke-linejoin="round"/>
<path d="M261.05 421.26L266.03 425.16L249.22 427.49L245.01 423.75L262.3 421.42" fill="white"/>
<path d="M261.05 421.26L266.03 425.16L249.22 427.49L245.01 423.75L262.3 421.42" stroke="#263238" stroke-linecap="round" stroke-linejoin="round"/>
<path d="M241.28 424.69L245.64 428.58L238.01 429.52L234.12 425.94L241.28 424.69Z" fill="white" stroke="#263238" stroke-linecap="round" stroke-linejoin="round"/>
<path d="M239.25 432.63L252.8 429.98L256.85 433.56L243.15 436.21L239.25 432.63Z" fill="white" stroke="#263238" stroke-linecap="round" stroke-linejoin="round"/>
<path d="M286.74 424.69L291.1 428.43L363.34 415.04L358.52 412.08L286.74 424.69Z" fill="white" stroke="#263238" stroke-linecap="round" stroke-linejoin="round"/>
<path d="M362.88 411.45L368.48 414.1L378.76 412.55L373.78 409.27L362.88 411.45Z" fill="white" stroke="#263238" stroke-linecap="round" stroke-linejoin="round"/>
<path d="M373.62 402.42L378.6 405.38L399.61 401.9L394.02 398.69L373.62 402.42Z" fill="white" stroke="#263238" stroke-linecap="round" stroke-linejoin="round"/>
<path d="M391.84 396.51L375.8 399L370.66 396.2L387.48 393.24L391.84 396.51Z" fill="white" stroke="#263238" stroke-linecap="round" stroke-linejoin="round"/>
<path d="M402.27 405.38L388.26 407.41L393.86 409.74L406.01 407.9L402.27 405.38Z" fill="white" stroke="#263238" stroke-linecap="round" stroke-linejoin="round"/>
<path d="M377.2 385.76L244.24 407.72L240.5 403.67L372.01 382.3L377.2 385.76Z" fill="white" stroke="#263238" stroke-linecap="round" stroke-linejoin="round"/>
<path d="M237.39 403.98L241.12 408.03L220.73 411.14L217.41 407.1L237.39 403.98Z" fill="white" stroke="#263238" stroke-linecap="round" stroke-linejoin="round"/>
<path d="M346.01 379.9L309.78 386.08L304.81 382.9L341.41 376.9L346.01 379.9Z" fill="white" stroke="#263238" stroke-linecap="round" stroke-linejoin="round"/>
<path d="M300.61 387.5L262.92 393.86L258.21 390.3L295.41 384.7L300.61 387.5Z" fill="white" stroke="#263238" stroke-linecap="round" stroke-linejoin="round"/>
<path d="M253.41 395.7L213.1 401.96L210.01 397.7L249.41 391.9L253.41 395.7Z" fill="white" stroke="#263238" stroke-linecap="round" stroke-linejoin="round"/>
<path d="M178.36 417.38L174.81 413.1L206.61 407.9L210.61 412.42L178.36 417.38Z" fill="white" stroke="#263238" stroke-linecap="round" stroke-linejoin="round"/>
<path d="M212.73 414.82L217.41 420.1L184.78 425.14L180.55 420.03L212.73 414.82Z" fill="white" stroke="#263238" stroke-linecap="round" stroke-linejoin="round"/>
<path d="M202.61 403.5L173.01 408.23L168.01 404.5L198.01 399.5L202.61 403.5Z" fill="white" stroke="#263238" stroke-linecap="round" stroke-linejoin="round"/>
<path d="M123.49 426.36L168.41 418.92L164.41 413.9L120.21 420.9L123.49 426.36Z" fill="white" stroke="#263238" stroke-linecap="round" stroke-linejoin="round"/>
<path d="M125.25 428.39L169.49 420.94L173.82 425.82L136.89 431.77L141.22 437.86L131.88 439.62L125.25 428.39Z" fill="white" stroke="#263238" stroke-linecap="round" stroke-linejoin="round"/>
<path d="M175.85 427.98L142.3 433.39L146.09 438.53L179.24 432.44L175.85 427.98Z" fill="white" stroke="#263238" stroke-linecap="round" stroke-linejoin="round"/>
<path d="M181.13 434.88L147.44 440.43L150.55 444.49L184.11 438.53L181.13 434.88Z" fill="white" stroke="#263238" stroke-linecap="round" stroke-linejoin="round"/>
<path d="M142.98 440.43L151.23 452.47L140.41 454.7L133.5 442.46L142.98 440.43Z" fill="white" stroke="#263238" stroke-linecap="round" stroke-linejoin="round"/>
<path d="M152.04 446.92L156.37 452.06L190.61 446.3L185.87 441.51L152.04 446.92Z" fill="white" stroke="#263238" stroke-linecap="round" stroke-linejoin="round"/>
</svg>
