<svg width="314" height="251" viewBox="0 0 314 251" fill="none" xmlns="http://www.w3.org/2000/svg">
<mask id="mask0_85_234" style="mask-type:luminance" maskUnits="userSpaceOnUse" x="57" y="0" width="200" height="201">
<path d="M57 0.151123H257V200.151H57V0.151123Z" fill="white"/>
</mask>
<g mask="url(#mask0_85_234)">
<path d="M156.719 0.0834961C184.391 0.0834961 209.729 11.5939 227.578 29.4741C245.422 47.922 256.969 72.7033 256.969 100.333C256.969 127.964 245.458 152.745 227.578 171.188C209.693 189.073 184.349 200.583 156.719 200.583C129.089 200.583 104.307 189.073 86.4219 171.188C67.9792 152.745 57.0312 128 57.0312 100.333C57.0312 72.6616 67.9792 47.922 86.4219 29.4741C104.271 11.5939 129.052 0.0834961 156.719 0.0834961ZM154.396 64.0418C154.953 63.4793 154.953 62.3179 154.953 61.1564C158.401 47.922 162.453 30.0366 190.083 30.6408C192.37 30.6408 194.13 32.9272 194.13 35.2502C194.13 37.5366 193.573 70.9793 158.401 69.2554C156.12 69.2554 154.354 67.5314 154.354 65.2033C154.396 64.6043 154.396 64.0418 154.396 64.0418ZM184.948 39.2606C169.953 40.422 165.943 51.37 164.219 60.5939C179.734 59.4325 184.349 46.1564 184.948 39.2606ZM151.505 96.2814C152.068 96.8439 152.068 97.4481 152.068 98.0054C153.792 108.391 155.516 118.74 157.844 127.964C160.729 104.344 171.677 74.9481 203.354 65.7241C205.078 64.5627 207.406 65.7241 208.526 68.0106C208.526 68.0106 234.474 127.922 176.25 146.927C174.526 147.49 171.635 146.37 171.073 144.042C170.516 141.714 171.635 139.432 173.964 138.87C214.865 125.636 206.245 87.021 202.193 74.9116C162.453 89.3075 164.177 144.641 164.74 155.552C169.911 169.948 170.516 183.781 170.516 190.677C190.125 187.792 207.969 178.568 221.802 164.735C237.922 148.735 248.307 125.677 248.307 100.333C248.307 74.9897 237.922 51.9325 221.802 35.2085C205.078 19.0887 182.062 8.70329 156.677 8.70329C131.297 8.70329 108.88 19.0887 92.1562 35.2085C75.4792 51.9325 65.0885 74.9897 65.0885 100.333C65.0885 125.677 75.4792 148.735 92.1562 164.854C108.88 181.573 131.339 191.922 156.677 191.922C158.401 191.922 160.13 191.922 161.854 191.922C162.411 186.146 161.854 174.078 157.802 160.802C157.24 160.24 156.641 159.641 156.641 159.078C156.641 158.516 156.078 157.354 156.078 156.193C149.182 138.349 134.182 121.063 102.505 117.578C103.667 127.964 110.005 152.141 151.469 160.203C153.75 160.766 154.917 163.089 154.354 165.375C154.354 167.662 152.068 168.823 149.74 168.261C90.4323 156.792 94.4844 113.005 94.4844 113.005C94.4844 110.719 96.2083 108.953 98.5365 108.953C122.714 110.115 138.875 118.74 149.823 129.688C147.536 120.464 145.208 110.078 144.047 99.172C140.599 91.1095 135.385 83.0522 127.328 77.2762C121.552 73.2241 114.656 70.3804 105.995 69.7762C107.156 77.8387 110.604 94.5575 132.5 94.5575C134.786 94.5575 136.547 96.2814 137.109 98.6095C137.109 100.896 134.823 102.656 132.5 102.656C95.0469 103.823 97.9323 65.2033 97.9323 65.2033C97.9323 62.922 99.6563 61.1564 101.984 61.1564C114.656 61.1564 124.438 64.6043 131.938 70.3804C135.385 72.6616 138.833 75.5522 141.161 79.0418C140 62.3179 140.599 46.7606 144.047 35.8127C145.208 33.5262 147.495 32.3647 149.823 32.9272C151.547 33.4845 153.271 35.8127 152.109 38.0991C147.495 52.495 148.62 74.9897 151.505 96.2814Z" fill="#7CC529"/>
</g>
<path d="M27.4297 230.724H36.763V246.182C34.6224 247.713 32.1641 248.885 29.388 249.703C26.6224 250.521 23.8516 250.932 21.0755 250.932C17.1693 250.932 13.6484 250.109 10.513 248.453C7.38802 246.802 4.9349 244.505 3.15885 241.557C1.3776 238.599 0.492188 235.255 0.492188 231.516C0.492188 227.781 1.3776 224.443 3.15885 221.495C4.9349 218.536 7.40885 216.234 10.5755 214.578C13.7422 212.927 17.3099 212.099 21.2839 212.099C24.7682 212.099 27.8984 212.693 30.6797 213.87C33.4557 215.036 35.7682 216.724 37.6172 218.932L30.888 225.016C28.3568 222.24 25.3359 220.849 21.8255 220.849C18.6276 220.849 16.0547 221.823 14.0964 223.766C12.138 225.698 11.1589 228.281 11.1589 231.516C11.1589 233.573 11.6016 235.411 12.4922 237.036C13.3776 238.651 14.6224 239.911 16.2214 240.828C17.8151 241.734 19.6484 242.182 21.7214 242.182C23.7474 242.182 25.6484 241.776 27.4297 240.953V230.724Z" fill="#7CC529"/>
<path d="M52.6589 224.745C53.6849 223.427 55.0234 222.443 56.6797 221.786C58.3307 221.12 60.2214 220.786 62.3464 220.786V229.911C61.4297 229.818 60.6641 229.766 60.0547 229.766C57.888 229.766 56.1901 230.349 54.9714 231.516C53.7474 232.682 53.138 234.484 53.138 236.911V250.182H42.9922V221.266H52.6589V224.745Z" fill="#7CC529"/>
<path d="M96.1584 235.786C96.1584 235.859 96.1063 236.693 96.0125 238.286H74.9917C75.4188 239.786 76.2469 240.943 77.4709 241.745C78.6896 242.536 80.2313 242.932 82.0959 242.932C83.4709 242.932 84.6636 242.74 85.6792 242.349C86.6896 241.963 87.7209 241.323 88.7625 240.432L94.0959 245.974C91.273 249.099 87.1636 250.661 81.7625 250.661C78.3875 250.661 75.4136 250.026 72.8459 248.745C70.2886 247.469 68.3094 245.693 66.9084 243.411C65.5021 241.135 64.8042 238.557 64.8042 235.682C64.8042 232.838 65.4813 230.286 66.8459 228.036C68.2209 225.776 70.1167 224.005 72.5334 222.724C74.95 221.432 77.6688 220.786 80.7 220.786C83.575 220.786 86.1844 221.385 88.5334 222.578C90.8771 223.776 92.7313 225.505 94.0959 227.766C95.4709 230.016 96.1584 232.693 96.1584 235.786ZM80.7625 227.995C79.1896 227.995 77.8771 228.443 76.825 229.328C75.7834 230.219 75.1167 231.427 74.825 232.953H86.6792C86.3875 231.427 85.7104 230.219 84.6584 229.328C83.6167 228.443 82.3146 227.995 80.7625 227.995Z" fill="#7CC529"/>
<path d="M130.395 235.786C130.395 235.859 130.343 236.693 130.249 238.286H109.228C109.655 239.786 110.483 240.943 111.707 241.745C112.926 242.536 114.468 242.932 116.332 242.932C117.707 242.932 118.9 242.74 119.916 242.349C120.926 241.963 121.957 241.323 122.999 240.432L128.332 245.974C125.51 249.099 121.4 250.661 115.999 250.661C112.624 250.661 109.65 250.026 107.082 248.745C104.525 247.469 102.546 245.693 101.145 243.411C99.7387 241.135 99.0408 238.557 99.0408 235.682C99.0408 232.838 99.7179 230.286 101.082 228.036C102.457 225.776 104.353 224.005 106.77 222.724C109.187 221.432 111.905 220.786 114.937 220.786C117.812 220.786 120.421 221.385 122.77 222.578C125.114 223.776 126.968 225.505 128.332 227.766C129.707 230.016 130.395 232.693 130.395 235.786ZM114.999 227.995C113.426 227.995 112.114 228.443 111.062 229.328C110.02 230.219 109.353 231.427 109.062 232.953H120.916C120.624 231.427 119.947 230.219 118.895 229.328C117.853 228.443 116.551 227.995 114.999 227.995Z" fill="#7CC529"/>
<path d="M153.923 220.786C157.507 220.786 160.387 221.859 162.569 223.995C164.762 226.135 165.861 229.349 165.861 233.641V250.182H155.736V235.307C155.736 231.365 154.152 229.391 150.986 229.391C149.246 229.391 147.85 229.963 146.798 231.099C145.757 232.224 145.236 233.927 145.236 236.203V250.182H135.09V221.266H144.757V224.432C145.882 223.255 147.225 222.349 148.798 221.724C150.366 221.099 152.074 220.786 153.923 220.786Z" fill="#7CC529"/>
<path d="M191.315 250.932C187.398 250.932 183.883 250.109 180.773 248.453C177.659 246.802 175.216 244.505 173.44 241.557C171.659 238.599 170.773 235.255 170.773 231.516C170.773 227.781 171.659 224.443 173.44 221.495C175.216 218.536 177.659 216.234 180.773 214.578C183.883 212.927 187.398 212.099 191.315 212.099C194.716 212.099 197.784 212.703 200.523 213.911C203.273 215.12 205.549 216.865 207.357 219.141L200.648 225.224C198.232 222.307 195.294 220.849 191.836 220.849C189.805 220.849 188.003 221.297 186.419 222.182C184.836 223.073 183.607 224.328 182.732 225.953C181.867 227.568 181.44 229.422 181.44 231.516C181.44 233.615 181.867 235.474 182.732 237.099C183.607 238.713 184.836 239.963 186.419 240.849C188.003 241.74 189.805 242.182 191.836 242.182C195.294 242.182 198.232 240.724 200.648 237.807L207.357 243.891C205.549 246.172 203.273 247.911 200.523 249.12C197.784 250.328 194.716 250.932 191.315 250.932Z" fill="#737373"/>
<path d="M226.067 250.661C222.984 250.661 220.192 250.026 217.692 248.745C215.202 247.469 213.26 245.693 211.859 243.411C210.452 241.135 209.754 238.557 209.754 235.682C209.754 232.838 210.452 230.276 211.859 227.995C213.26 225.719 215.197 223.948 217.671 222.682C220.14 221.422 222.942 220.786 226.067 220.786C229.202 220.786 232.015 221.422 234.504 222.682C236.989 223.948 238.926 225.713 240.317 227.974C241.702 230.224 242.4 232.797 242.4 235.682C242.4 238.557 241.702 241.135 240.317 243.411C238.926 245.693 236.989 247.469 234.504 248.745C232.015 250.026 229.202 250.661 226.067 250.661ZM226.067 242.599C227.843 242.599 229.301 241.99 230.442 240.766C231.577 239.547 232.15 237.849 232.15 235.682C232.15 233.547 231.577 231.87 230.442 230.661C229.301 229.453 227.843 228.849 226.067 228.849C224.286 228.849 222.827 229.453 221.692 230.661C220.567 231.87 220.004 233.547 220.004 235.682C220.004 237.849 220.567 239.547 221.692 240.766C222.827 241.99 224.286 242.599 226.067 242.599Z" fill="#737373"/>
<path d="M277.813 210.599V250.182H268.146V247.307C266.271 249.547 263.443 250.661 259.667 250.661C257.042 250.661 254.646 250.052 252.479 248.828C250.313 247.594 248.594 245.844 247.334 243.578C246.068 241.302 245.438 238.672 245.438 235.682C245.438 232.698 246.068 230.078 247.334 227.828C248.594 225.568 250.313 223.828 252.479 222.62C254.646 221.401 257.042 220.786 259.667 220.786C263.125 220.786 265.792 221.786 267.667 223.786V210.599H277.813ZM261.813 242.599C263.547 242.599 264.985 241.99 266.125 240.766C267.261 239.547 267.834 237.849 267.834 235.682C267.834 233.547 267.271 231.87 266.146 230.661C265.031 229.453 263.589 228.849 261.813 228.849C260.031 228.849 258.573 229.453 257.438 230.661C256.297 231.87 255.729 233.547 255.729 235.682C255.729 237.849 256.297 239.547 257.438 240.766C258.573 241.99 260.031 242.599 261.813 242.599Z" fill="#737373"/>
<path d="M313.848 235.786C313.848 235.859 313.796 236.693 313.702 238.286H292.681C293.108 239.786 293.937 240.943 295.161 241.745C296.379 242.536 297.921 242.932 299.786 242.932C301.161 242.932 302.353 242.74 303.369 242.349C304.379 241.963 305.411 241.323 306.452 240.432L311.786 245.974C308.963 249.099 304.853 250.661 299.452 250.661C296.077 250.661 293.103 250.026 290.536 248.745C287.978 247.469 285.999 245.693 284.598 243.411C283.192 241.135 282.494 238.557 282.494 235.682C282.494 232.838 283.171 230.286 284.536 228.036C285.911 225.776 287.806 224.005 290.223 222.724C292.64 221.432 295.358 220.786 298.39 220.786C301.265 220.786 303.874 221.385 306.223 222.578C308.567 223.776 310.421 225.505 311.786 227.766C313.161 230.016 313.848 232.693 313.848 235.786ZM298.452 227.995C296.879 227.995 295.567 228.443 294.515 229.328C293.473 230.219 292.806 231.427 292.515 232.953H304.369C304.077 231.427 303.4 230.219 302.348 229.328C301.306 228.443 300.004 227.995 298.452 227.995Z" fill="#737373"/>
</svg>
