<svg width="187" height="239" viewBox="0 0 187 239" fill="none" xmlns="http://www.w3.org/2000/svg">
<path d="M96.72 229.824C46.9371 229.824 6.57999 187.718 6.57999 135.778C6.57999 83.8374 46.9371 41.7314 96.72 41.7314C146.503 41.7314 186.86 83.8374 186.86 135.778C186.86 187.718 146.503 229.824 96.72 229.824Z" fill="#7CC529"/>
<path d="M145.96 236.794L145.65 161.591C145.65 161.591 158.38 163.427 160.51 163.75C162.64 164.074 163.62 161.497 169.72 155.143C175.82 148.789 174.89 131.313 166.97 125.596C159.05 119.878 141.7 98.8966 140.48 97.6237C139.26 96.3509 130.73 97.6237 127.38 98.2602C124.03 98.8966 117.94 102.434 116.38 102.715C114.82 102.997 103.58 104.938 103.58 104.938L62.16 112.877C58.81 113.514 43.89 122.726 40.23 123.311C36.57 123.895 32.31 129.988 31.7 132.847C31.09 135.706 25.31 186.547 22.87 190.042C20.43 193.538 12.21 237.692 12.21 237.692" fill="white"/>
<path d="M145.96 236.794L145.65 161.591C145.65 161.591 158.38 163.427 160.51 163.75C162.64 164.074 163.62 161.497 169.72 155.143C175.82 148.789 174.89 131.313 166.97 125.596C159.05 119.878 141.7 98.8966 140.48 97.6237C139.26 96.3509 130.73 97.6237 127.38 98.2602C124.03 98.8966 117.94 102.434 116.38 102.715C114.82 102.997 103.58 104.938 103.58 104.938L62.16 112.877C58.81 113.514 43.89 122.726 40.23 123.311C36.57 123.895 32.31 129.988 31.7 132.847C31.09 135.706 25.31 186.547 22.87 190.042C20.43 193.538 12.21 237.692 12.21 237.692" stroke="#263238" stroke-linecap="round" stroke-linejoin="round"/>
<path d="M76.25 129.81H72.48L61.52 134.453L73.85 123.008L76.25 129.81Z" fill="#263238" stroke="#263238" stroke-linecap="round" stroke-linejoin="round"/>
<path d="M99.9 130.884L85.16 128.735L90.3 120.868L99.9 130.884Z" fill="#263238" stroke="#263238" stroke-linecap="round" stroke-linejoin="round"/>
<path d="M136.98 112.438C136.98 112.438 135.33 135.694 137.81 145.606C140.29 155.518 142.35 158.126 142.35 158.126" stroke="#263238" stroke-linecap="round" stroke-linejoin="round"/>
<path d="M138.65 166.567C139.02 167.903 139.41 169.238 139.83 170.584Z" fill="white"/>
<path d="M138.65 166.567C139.02 167.903 139.41 169.238 139.83 170.584" stroke="#263238" stroke-linecap="round" stroke-linejoin="round"/>
<path d="M133.26 128.381C133.502 139.936 134.975 151.428 137.65 162.644Z" fill="white"/>
<path d="M133.26 128.381C133.502 139.936 134.975 151.428 137.65 162.644" stroke="#263238" stroke-linecap="round" stroke-linejoin="round"/>
<path d="M36.46 232.516C36.46 232.516 42.4 204.983 41.8 202.124C41.2 199.265 39.36 147.787 39.36 147.787" stroke="#263238" stroke-linecap="round" stroke-linejoin="round"/>
<path d="M112.65 119.199C112.103 120.778 111.517 122.468 110.89 124.27" stroke="#263238" stroke-linecap="round" stroke-linejoin="round"/>
<path d="M118.24 103.926C118.24 103.926 116.59 108.099 113.7 116.3" stroke="#263238" stroke-linecap="round" stroke-linejoin="round"/>
<path d="M105.84 149.446C105.521 151.21 105.29 152.989 105.15 154.778" stroke="#263238" stroke-linecap="round" stroke-linejoin="round"/>
<path d="M116.42 118.897C112.285 127.369 109.01 136.268 106.65 145.45" stroke="#263238" stroke-linecap="round" stroke-linejoin="round"/>
<path d="M80.36 136.926C80.36 136.926 76.82 171.293 76.82 176.061C76.82 180.829 74.19 234.092 74.19 234.092" stroke="#263238" stroke-linecap="round" stroke-linejoin="round"/>
<path d="M43.62 185.431L64.33 183.355V149.613L43.62 151.679V185.431Z" fill="white" stroke="#263238" stroke-linecap="round" stroke-linejoin="round"/>
<path d="M51.85 152.711L57.02 152.388V141.902L51.85 142.226V152.711Z" fill="#7CC529" stroke="#263238" stroke-linecap="round" stroke-linejoin="round"/>
<path d="M96.86 96.852C96.86 96.852 99.18 96.5807 99.69 97.3945C100.2 98.2083 106.14 105.188 106.14 105.188C105.559 108.741 105.301 112.342 105.37 115.945C105.37 122.935 102.27 133.682 102.27 133.682L89.65 125.095L81.4 122.675C79.7821 122.381 78.1278 122.381 76.5099 122.675C76.5099 122.675 58.46 138.544 57.43 138.001C56.4 137.459 60.5199 119.712 63.3599 111.918C66.1999 104.124 74.19 99.8151 74.19 99.8151C74.19 99.8151 92.48 96.3199 96.86 96.852Z" fill="white" stroke="#263238" stroke-linecap="round" stroke-linejoin="round"/>
<path d="M100.21 64.0383C104.827 64.8466 109.224 66.6828 113.1 69.4219C118.77 73.7204 113.87 88.7862 106.91 92.5527C99.95 96.3191 95.06 95.234 92.22 88.515C89.38 81.7959 90.67 68.076 92.48 65.9267C94.29 63.7774 100.21 64.0383 100.21 64.0383Z" fill="#263238"/>
<path d="M94.02 70.2246L96.6 99.5424C94.6299 106.338 92.2177 112.986 89.38 119.439C86.8503 125.518 83.8399 131.367 80.38 136.925C80.38 136.925 74.2 125.094 72.65 121.056C71.3792 117.279 70.3404 113.421 69.54 109.506L65.65 92.0095C65.65 92.0095 72.65 90.1315 81.12 83.4019C85.9866 79.6569 90.3285 75.2217 94.02 70.2246Z" fill="white" stroke="#263238" stroke-linecap="round" stroke-linejoin="round"/>
<path d="M65.65 92.011C65.65 92.011 72.65 90.133 81.12 83.4035C83.3252 81.6604 85.4352 79.79 87.44 77.8008V89.8096C87.44 89.8096 80.95 101.672 74.44 105.063C72.6967 105.944 70.8176 106.495 68.89 106.691L65.65 92.011Z" fill="#263238"/>
<path d="M47.88 65.6866C47.88 65.6866 45.82 63.5373 45.56 68.1071C45.3 72.677 48.14 76.4538 49.95 78.0606C51.76 79.6673 52.52 80.2098 52.52 80.2098L47.88 65.6866Z" fill="white" stroke="#263238" stroke-linecap="round" stroke-linejoin="round"/>
<path d="M65.6499 23.4111C72.4029 22.4059 79.2648 24.1957 84.7699 28.3982C93.9299 35.4616 94.7699 52.5097 94.7699 52.5097C94.7699 52.5097 97.9499 49.5988 99.9499 53.334C101.95 57.0691 101.95 66.6365 100.34 67.4712C98.73 68.3058 96.7599 69.1301 96.7599 69.1301C96.7599 69.1301 94.3699 81.598 91.9799 85.3435C89.5899 89.0891 80.8199 98.6461 75.6399 98.6461C70.4599 98.6461 61.7 95.7352 57.72 90.2994C54.1664 85.212 51.3465 79.6089 49.35 73.6686C47.76 69.0988 44.97 47.0739 44.97 47.0739C44.97 47.0739 43.7799 37.0996 51.3399 30.0363C58.8999 22.9729 65.6499 23.4111 65.6499 23.4111Z" fill="white" stroke="#263238" stroke-linecap="round" stroke-linejoin="round"/>
<path d="M91.96 85.3436C89.57 89.0788 80.8 98.6462 75.62 98.6462C70.44 98.6462 61.6799 95.7353 57.6999 90.2995C54.1464 85.2121 51.3265 79.609 49.33 73.6687C48.7789 71.7729 48.3447 69.8422 48.03 67.8886C49.03 66.8453 56.12 59.8132 65.15 57.8204C74.95 55.6711 92.74 54.0644 92.74 54.0644L94.74 52.4785L96.56 69.9231C95.99 72.8027 93.98 82.1823 91.96 85.3436Z" fill="#7CC529" stroke="#263238" stroke-linecap="round" stroke-linejoin="round"/>
<path d="M61.55 59.1971C61.55 59.1971 60 51.1321 59.23 48.9828C58.46 46.8336 53.3 44.9451 49.43 50.8608" stroke="#263238" stroke-linecap="round" stroke-linejoin="round"/>
<path d="M70.31 43.5997C70.31 43.5997 75.46 36.8806 83.71 42.7963" stroke="#263238" stroke-linecap="round" stroke-linejoin="round"/>
<path d="M78.09 49.4734C78.37 50.5167 79.16 51.2575 79.84 51.0593C80.52 50.861 80.84 49.8386 80.57 48.7639C80.3 47.6893 79.5 46.9694 78.82 47.1676C78.14 47.3658 77.81 48.3987 78.09 49.4734Z" fill="#263238"/>
<path d="M55.41 55.1909C55.69 56.2342 56.48 56.975 57.16 56.7767C57.84 56.5785 58.16 55.556 57.89 54.4814C57.62 53.4068 56.82 52.6973 56.14 52.8955C55.46 53.0938 55.12 54.1162 55.41 55.1909Z" fill="#263238"/>
<path d="M94.75 52.509C94.336 52.6459 93.8907 52.6384 93.4811 52.4878C93.0716 52.3373 92.7202 52.0517 92.48 51.6744C91.7 50.3285 93.25 45.4874 87.58 39.5717C81.91 33.656 75.46 32.8421 72.37 30.1816C69.28 27.5211 68.76 26.1544 70.82 23.4626C72.88 20.7707 75.98 16.1592 87.32 22.9304C98.66 29.7017 102.79 33.9481 100.98 39.8638C100.005 43.2159 98.5271 46.3854 96.6 49.2538L94.75 52.509Z" fill="#263238"/>
<path d="M73.4 21.2824C73.4 21.2824 71.08 26.9268 66.96 29.0761C62.84 31.2254 57.42 32.0392 50.96 36.0769C44.5 40.1146 45.8 52.2069 45.8 52.2069C45.8 52.2069 37.04 56.7767 33.43 50.0576C29.82 43.3385 26.43 32.0392 40.65 23.7029C54.87 15.3666 65.41 5.41321 73.4 21.2824Z" fill="#263238"/>
<path d="M113.65 5.73633V44.0372C113.653 45.0897 114.055 46.0981 114.769 46.8413C115.484 47.5845 116.451 48.0019 117.46 48.0019C118.467 47.9991 119.432 47.5805 120.144 46.8376C120.856 46.0947 121.257 45.0879 121.26 44.0372V5.73633H113.65Z" fill="white" stroke="#263238" stroke-linecap="round" stroke-linejoin="round"/>
<path d="M113.65 26.04V44.0063C113.653 45.0588 114.055 46.0672 114.769 46.8104C115.484 47.5536 116.451 47.971 117.46 47.971C118.467 47.9682 119.432 47.5496 120.144 46.8067C120.856 46.0638 121.257 45.0569 121.26 44.0063V26.04H113.65Z" fill="#7CC529" stroke="#263238" stroke-linecap="round" stroke-linejoin="round"/>
<path d="M112.46 3.82715H122.51V7.00933H112.46V3.82715Z" fill="white" stroke="#263238" stroke-linecap="round" stroke-linejoin="round"/>
<path d="M137.13 82.0048C137.13 82.0048 137.13 81.0554 141.39 77.8315C145.65 74.6075 161.8 74.3363 165.15 78.4679C168.5 82.5995 156.62 94.0345 153.27 95.6308C149.92 97.2271 143.83 94.3579 142 92.1356C140.17 89.9133 137.13 82.0048 137.13 82.0048Z" fill="white" stroke="#263238" stroke-linecap="round" stroke-linejoin="round"/>
<path d="M159.06 57.8516L162.06 81.6814C162.06 81.6814 156.27 89.9446 151.06 90.268C145.85 90.5915 141.31 85.5 141.31 85.5L140.09 61.6702C140.09 61.6702 152.05 61.3467 159.06 57.8516Z" fill="white" stroke="#263238" stroke-linecap="round" stroke-linejoin="round"/>
<path d="M155.71 41.9614C155.71 41.9614 155.1 26.3948 154.49 20.0513C153.88 13.7078 152.05 9.24236 151.14 9.24236C150.23 9.24236 138.95 1 138.95 1C138.95 1 120.68 2.27287 118.85 2.27287C117.02 2.27287 113.37 3.54574 113.67 5.40288L113.98 7.30175C113.822 8.3386 113.822 9.39492 113.98 10.4318C114.23 11.0733 114.654 11.6246 115.2 12.0176C115.041 12.5241 115.08 13.0754 115.309 13.552C115.537 14.0286 115.936 14.392 116.42 14.5634C118.24 15.5128 125.86 19.6444 125.86 19.6444C127.723 23.669 129.349 27.8083 130.73 32.0393C131.95 36.4943 136.82 41.2519 136.82 41.2519C136.82 41.2519 136.52 45.707 136.52 48.5553C136.716 51.0489 137.227 53.5046 138.04 55.8586C137.887 57.552 137.887 59.2567 138.04 60.9501C138.34 61.8996 139.26 63.1724 140.17 63.1724C141.08 63.1724 147.79 64.4453 151.17 63.8089C154.55 63.1724 159.39 59.0408 159.39 59.0408L157.87 52.6869V47.5954C157.84 45.78 155.71 41.9614 155.71 41.9614Z" fill="#7CC529" stroke="#263238" stroke-linecap="round" stroke-linejoin="round"/>
<path d="M145.35 41.3256C145.35 41.3256 138.95 38.7903 138.35 34.6587C137.75 30.5271 134.7 20.052 134.7 20.052L125.87 19.7285" stroke="#263238" stroke-linecap="round" stroke-linejoin="round"/>
<path d="M142 15.6075C142 15.6075 134.08 12.7487 131.95 12.7487C129.82 12.7487 115.2 12.1123 115.2 12.1123" stroke="#263238" stroke-linecap="round" stroke-linejoin="round"/>
<path d="M142.3 8.30364C138.614 7.3419 134.838 6.81002 131.04 6.71777C125.55 6.71777 113.98 7.34377 113.98 7.34377" stroke="#263238" stroke-linecap="round" stroke-linejoin="round"/>
<path d="M156.01 54.3555C156.01 54.3555 152.01 58.8001 143.52 57.8506" stroke="#263238" stroke-linecap="round" stroke-linejoin="round"/>
<path d="M138.65 53.083C138.65 53.083 140.17 54.0429 147.18 54.0429" stroke="#263238" stroke-linecap="round" stroke-linejoin="round"/>
<path d="M162.1 81.6818L165.15 78.5518C165.15 78.5518 181.9 144.647 182.2 149.415C182.5 154.183 175.5 162.123 171.54 164.022C167.58 165.921 154.49 164.335 150.22 162.113C145.95 159.89 143.22 150.991 140.78 142.727C138.34 134.464 141.09 119.847 140.48 115.402C139.87 110.958 137.13 82.0156 137.13 82.0156L141.39 85.5108C141.39 85.5108 153.27 85.1769 162.1 81.6818Z" fill="white" stroke="#263238" stroke-linecap="round" stroke-linejoin="round"/>
<path d="M160.2 237.242H1.00001" stroke="#263238" stroke-linecap="round" stroke-linejoin="round"/>
</svg>
