<svg width="200" height="201" viewBox="0 0 200 201" fill="none" xmlns="http://www.w3.org/2000/svg">
<mask id="mask0_30_4333" style="mask-type:luminance" maskUnits="userSpaceOnUse" x="0" y="0" width="200" height="201">
<path d="M0 0.151123H200V200.151H0V0.151123Z" fill="white"/>
</mask>
<g mask="url(#mask0_30_4333)">
<path d="M99.7188 0.0834961C127.391 0.0834961 152.729 11.5939 170.578 29.4741C188.422 47.922 199.969 72.7033 199.969 100.333C199.969 127.964 188.458 152.745 170.578 171.188C152.693 189.073 127.349 200.583 99.7188 200.583C72.0885 200.583 47.3073 189.073 29.4219 171.188C10.9792 152.745 0.03125 128 0.03125 100.333C0.03125 72.6616 10.9792 47.922 29.4219 29.4741C47.2708 11.5939 72.0521 0.0834961 99.7188 0.0834961ZM97.3958 64.0418C97.9531 63.4793 97.9531 62.3179 97.9531 61.1564C101.401 47.922 105.453 30.0366 133.083 30.6408C135.37 30.6408 137.13 32.9272 137.13 35.2502C137.13 37.5366 136.573 70.9793 101.401 69.2554C99.1198 69.2554 97.3542 67.5314 97.3542 65.2033C97.3958 64.6043 97.3958 64.0418 97.3958 64.0418ZM127.948 39.2606C112.953 40.422 108.943 51.37 107.219 60.5939C122.734 59.4325 127.349 46.1564 127.948 39.2606ZM94.5052 96.2814C95.0677 96.8439 95.0677 97.4481 95.0677 98.0054C96.7917 108.391 98.5156 118.74 100.844 127.964C103.729 104.344 114.677 74.9481 146.354 65.7241C148.078 64.5627 150.406 65.7241 151.526 68.0106C151.526 68.0106 177.474 127.922 119.25 146.927C117.526 147.49 114.635 146.37 114.073 144.042C113.516 141.714 114.635 139.432 116.964 138.87C157.865 125.636 149.245 87.021 145.193 74.9116C105.453 89.3075 107.177 144.641 107.74 155.552C112.911 169.948 113.516 183.781 113.516 190.677C133.125 187.792 150.969 178.568 164.802 164.735C180.922 148.735 191.307 125.677 191.307 100.333C191.307 74.9897 180.922 51.9325 164.802 35.2085C148.078 19.0887 125.062 8.70329 99.6771 8.70329C74.2969 8.70329 51.8802 19.0887 35.1562 35.2085C18.4792 51.9325 8.08854 74.9897 8.08854 100.333C8.08854 125.677 18.4792 148.735 35.1562 164.854C51.8802 181.573 74.3385 191.922 99.6771 191.922C101.401 191.922 103.13 191.922 104.854 191.922C105.411 186.146 104.854 174.078 100.802 160.802C100.24 160.24 99.6406 159.641 99.6406 159.078C99.6406 158.516 99.0781 157.354 99.0781 156.193C92.1823 138.349 77.1823 121.063 45.5052 117.578C46.6667 127.964 53.0052 152.141 94.4688 160.203C96.75 160.766 97.9167 163.089 97.3542 165.375C97.3542 167.662 95.0677 168.823 92.7396 168.261C33.4323 156.792 37.4844 113.005 37.4844 113.005C37.4844 110.719 39.2083 108.953 41.5365 108.953C65.7135 110.115 81.875 118.74 92.8229 129.688C90.5365 120.464 88.2083 110.078 87.0469 99.172C83.599 91.1095 78.3854 83.0522 70.3281 77.2762C64.5521 73.2241 57.6563 70.3804 48.9948 69.7762C50.1562 77.8387 53.6042 94.5575 75.5 94.5575C77.7865 94.5575 79.5469 96.2814 80.1094 98.6095C80.1094 100.896 77.8229 102.656 75.5 102.656C38.0469 103.823 40.9323 65.2033 40.9323 65.2033C40.9323 62.922 42.6563 61.1564 44.9844 61.1564C57.6563 61.1564 67.4375 64.6043 74.9375 70.3804C78.3854 72.6616 81.8333 75.5522 84.1615 79.0418C83 62.3179 83.599 46.7606 87.0469 35.8127C88.2083 33.5262 90.4948 32.3647 92.8229 32.9272C94.5469 33.4845 96.2708 35.8127 95.1094 38.0991C90.4948 52.495 91.6198 74.9897 94.5052 96.2814Z" fill="#7CC529"/>
</g>
</svg>
