<svg width="1300" height="1300" viewBox="0 0 1300 1300" fill="none" xmlns="http://www.w3.org/2000/svg">
<path d="M650 1300C290.71 1300 0 1008.86 0 650C0 290.71 291.141 0 650 0C1009.29 0 1300 291.141 1300 650C1300.43 1009.29 1009.29 1300 650 1300Z" fill="#B5E2C9"/>
<mask id="mask0_32_1392" style="mask-type:alpha" maskUnits="userSpaceOnUse" x="0" y="0" width="1301" height="1300">
<path d="M650 1300C290.71 1300 0 1008.86 0 650C0 290.71 291.141 0 650 0C1009.29 0 1300 291.141 1300 650C1300.43 1009.29 1009.29 1300 650 1300Z" fill="#F7C0B5"/>
</mask>
<g mask="url(#mask0_32_1392)">
<path d="M1014 1197.33C1010.97 1199.5 1007.5 1201.66 1004.47 1203.83C1001 1206 997.967 1208.16 994.5 1209.9C991.467 1211.63 988.867 1213.36 985.834 1215.1C985.4 1215.53 984.967 1215.53 984.534 1215.96C974.567 1222.03 964.167 1227.66 953.767 1232.86C950.734 1234.6 947.267 1236.33 944.234 1237.63C944.234 1237.63 943.8 1238.06 943.367 1238.06C939.9 1239.8 936.434 1241.53 932.967 1243.26C926.034 1246.73 918.667 1249.76 911.734 1252.8C908.267 1254.53 904.367 1255.83 900.9 1257.13C897.434 1258.43 893.534 1260.16 890.067 1261.46C886.6 1262.76 882.7 1264.5 879.234 1265.8C879.234 1265.8 879.234 1265.8 878.8 1265.8C875.334 1267.1 871.434 1268.4 867.967 1269.7C860.167 1272.3 851.934 1274.9 844.134 1277.5C841.534 1278.36 838.5 1279.23 835.9 1280.1C827.667 1282.7 819.434 1284.86 811.2 1286.6C808.167 1287.46 805.134 1287.9 801.667 1288.76C793.867 1290.5 785.634 1292.23 777.834 1293.96C776.1 1294.4 774.8 1294.4 773.067 1294.83C770.467 1295.26 767.434 1295.7 764.834 1296.13C760.934 1296.56 757.467 1297.43 753.567 1297.86C751.834 1298.3 750.1 1298.3 748.367 1298.73C746.2 1299.16 743.6 1299.6 741 1299.6C734.067 1300.46 726.7 1301.33 719.767 1302.2C717.6 1302.63 715 1302.63 712.834 1303.06H712.4C709.367 1303.5 706.334 1303.5 703.3 1303.93C700.267 1304.36 697.234 1304.36 694.2 1304.36C692.467 1304.36 690.3 1304.8 688.567 1304.8C685.1 1304.8 682.067 1305.23 679.034 1305.23C674.7 1305.23 670.8 1305.66 666.467 1305.66C662.134 1305.66 658.234 1305.66 653.9 1305.66C650.867 1305.66 647.834 1305.66 644.8 1305.66C462.367 1303.06 297.7 1225.5 180.7 1102.43C180.7 1102.43 180.7 1102 180.267 1102C193.7 1075.56 243.534 1027.9 295.534 988.465C361.4 938.632 454.567 907.865 454.567 907.865C454.567 907.865 515.667 897.898 742.3 945.132C915.2 981.532 988.867 1129.3 1014 1197.33Z" fill="#F7D3B5"/>
<path d="M790.4 1065.17C781.3 1109.8 722.367 1136.23 623.133 1096.37C501.367 1046.97 454.567 907.865 454.567 907.865C448.067 808.199 432.9 722.832 432.9 722.832C573.733 710.699 740.133 875.365 740.133 875.365L759.2 956.832C760.933 963.765 764.4 969.832 769.6 974.165C778.7 989.765 796.467 1036.57 790.4 1065.17Z" fill="#F7D3B5"/>
<path d="M769.6 974.598C686.834 970.265 625.734 958.132 560.3 840.698C615.767 889.665 681.2 908.298 750.1 916.965L759.2 956.832C760.934 964.198 764.4 970.265 769.6 974.598Z" fill="#EFBDA5"/>
<path d="M940.767 452.432C948.567 488.832 952.467 518.298 931.233 615.365C910 712.432 950.733 809.498 848.467 898.332C779.567 958.132 659.1 969.398 562.9 903.965C530.4 881.865 500.5 851.098 476.233 810.798C457.167 779.165 435.067 749.265 410.367 721.965C376.133 684.698 334.967 609.732 355.333 477.132C388.267 261.332 601.9 236.632 728 260.465C854.1 284.298 919.533 356.232 940.767 452.432Z" fill="#F7D3B5"/>
<path d="M526.067 621.865C526.067 621.865 512.634 556.865 449.367 564.665C394.767 571.598 375.701 702.465 499.634 738.865" fill="#F7D3B5"/>
<path d="M495.734 679.498C495.734 679.498 480.134 669.532 481.867 652.198C484.467 631.832 481.867 619.265 472.334 615.365C448.5 605.398 443.734 633.132 444.6 636.598" stroke="#423232" stroke-width="13.4786" stroke-miterlimit="10" stroke-linecap="round" stroke-linejoin="round"/>
<path d="M826.367 721.532C826.367 721.532 842.833 722.398 858.433 703.765C867.1 693.365 874.467 680.365 869.7 676.465C864.933 672.132 786.5 684.265 781.3 694.665C776.1 705.065 806.433 721.532 826.367 721.532Z" fill="#EFBDA5"/>
<path d="M839.367 575.932C839.367 575.932 840.233 617.098 866.666 663.032C878.366 683.398 860.6 716.765 822.033 722.398" stroke="#423232" stroke-width="13.4786" stroke-miterlimit="10" stroke-linecap="round" stroke-linejoin="round"/>
<path opacity="0.42" d="M604.5 743.632C629.151 743.632 649.134 727.141 649.134 706.798C649.134 686.456 629.151 669.965 604.5 669.965C579.85 669.965 559.867 686.456 559.867 706.798C559.867 727.141 579.85 743.632 604.5 743.632Z" fill="#ED938A"/>
<path opacity="0.42" d="M924.3 670.832C923 695.098 923.434 718.932 921.7 742.765C902.634 738.432 888.767 724.132 888.767 707.232C888.767 689.032 903.934 674.298 924.3 670.832Z" fill="#ED938A"/>
<path d="M1158.82 1466.34H63.3552C63.3552 1466.34 68.1219 1264.41 135.722 1121.84C185.555 1016.11 313.822 955.873 403.089 925.106C423.022 918.173 441.222 912.973 455.955 909.073C460.722 922.073 508.822 1049.47 624.089 1096.27C723.322 1136.57 782.255 1109.71 791.355 1065.07C796.989 1036.47 779.222 989.673 770.122 974.506C764.922 970.173 761.455 963.673 759.722 957.173L756.255 942.873C764.055 941.139 771.422 938.973 779.222 936.806C783.122 937.673 787.022 938.539 790.922 939.406C846.822 952.839 929.589 985.339 1026.66 1067.24C1138.89 1160.84 1158.82 1466.34 1158.82 1466.34Z" fill="#D85656"/>
<path d="M806.956 1182.94C791.789 1187.27 738.922 1132.24 728.089 1122.71C718.122 1133.97 647.922 1213.27 613.255 1208.07C575.122 1202.44 477.622 1137.01 428.222 1034.31C400.922 977.973 400.055 943.739 403.089 925.106C404.389 916.439 406.989 910.806 408.289 907.772C412.622 897.806 443.822 859.239 451.622 859.672V860.106C455.522 901.706 468.955 942.006 491.489 977.106C519.222 1020.01 562.989 1071.57 624.089 1096.27C723.322 1136.57 774.889 1096.71 783.556 1052.07C789.189 1023.47 779.222 989.672 770.122 974.506C764.922 970.172 761.456 963.672 759.722 957.172L756.255 942.873C764.055 941.139 771.422 938.973 779.222 936.806C781.389 935.939 783.989 935.506 786.156 934.639C787.456 936.373 789.189 938.106 790.489 939.839C808.689 960.639 827.755 989.239 838.155 1037.77C855.922 1115.34 823.856 1177.74 806.956 1182.94Z" fill="#423232"/>
<path d="M726.79 1120.11C726.79 1120.11 758.423 1138.31 757.556 1153.47C756.69 1168.64 765.79 1216.74 765.79 1216.74" stroke="#423232" stroke-width="13.4786" stroke-miterlimit="10" stroke-linecap="round" stroke-linejoin="round"/>
<path d="M726.356 1177.74C732.1 1177.74 736.756 1173.08 736.756 1167.34C736.756 1161.6 732.1 1156.94 726.356 1156.94C720.612 1156.94 715.956 1161.6 715.956 1167.34C715.956 1173.08 720.612 1177.74 726.356 1177.74Z" fill="#423232"/>
<path d="M730.255 1218.47C735.999 1218.47 740.655 1213.82 740.655 1208.07C740.655 1202.33 735.999 1197.67 730.255 1197.67C724.512 1197.67 719.855 1202.33 719.855 1208.07C719.855 1213.82 724.512 1218.47 730.255 1218.47Z" fill="#423232"/>
<path d="M277.856 1466.34L258.356 1305.57" stroke="#544D4D" stroke-width="13.4786" stroke-miterlimit="10" stroke-linecap="round" stroke-linejoin="round"/>
<path d="M1034.46 1250.97C1034.46 1250.97 1021.46 1282.61 1025.36 1314.24C1029.26 1345.87 1040.52 1392.24 1024.49 1466.34" stroke="#544D4D" stroke-width="13.4786" stroke-miterlimit="10" stroke-linecap="round" stroke-linejoin="round"/>
<path d="M683.943 619.439C673.543 619.006 665.743 610.339 666.61 599.939L667.043 587.806C667.477 577.406 676.143 569.606 686.543 570.473C696.943 570.906 704.743 579.573 703.877 589.973L703.443 602.106C703.01 612.073 694.343 619.873 683.943 619.439Z" fill="#423232"/>
<path d="M866.375 625.939C856.842 625.506 849.475 617.273 849.909 607.739L850.342 596.473C850.775 586.939 859.009 579.573 868.542 580.006C878.075 580.439 885.442 588.673 885.009 598.206L884.575 609.473C884.142 619.006 875.909 626.373 866.375 625.939Z" fill="#423232"/>
<path d="M725.977 594.306C725.977 594.306 714.71 578.272 695.21 575.239C679.177 572.639 661.41 580.439 658.81 589.539" stroke="#423232" stroke-width="13.4786" stroke-miterlimit="10" stroke-linecap="round" stroke-linejoin="round"/>
<path d="M853.81 598.206C853.81 598.206 853.81 584.339 873.743 584.339C890.21 584.339 897.143 599.506 897.143 599.506" stroke="#423232" stroke-width="13.4786" stroke-miterlimit="10" stroke-linecap="round" stroke-linejoin="round"/>
<path d="M743.742 524.539C752.842 527.572 761.942 519.339 760.209 509.372C759.342 504.172 757.175 498.972 752.842 495.072C739.842 483.372 686.109 472.972 653.609 488.139C625.009 502.006 702.142 510.672 743.742 524.539Z" fill="#423232"/>
<path d="M873.308 531.473C865.942 534.073 858.142 526.273 859.442 517.173C859.875 512.406 861.608 507.639 865.075 504.173C875.475 493.773 911.008 485.539 933.542 501.573C953.042 515.006 907.108 518.906 873.308 531.473Z" fill="#423232"/>
<path d="M797.606 771.721C771.996 786.997 726.618 770.373 705.502 744.764" stroke="#423232" stroke-width="13.4786" stroke-miterlimit="10" stroke-linecap="round" stroke-linejoin="round"/>
<path d="M1052.43 935.089C1028.17 881.355 1009.53 888.722 1026.43 840.189C1043.33 792.089 1021.67 757.855 977.034 712.355C934.567 669.022 930.234 621.789 931.534 614.855C927.634 633.055 925.901 651.689 925.034 669.889C923.734 694.155 924.167 717.989 922.434 741.822C918.967 795.122 906.401 847.555 849.201 896.955C824.067 918.622 792.001 934.222 756.467 941.589C746.934 970.622 761.234 991.422 792.434 994.889C823.634 998.355 836.634 1045.16 907.267 1067.26C1013 1101.49 1076.7 988.822 1052.43 935.089Z" fill="#423232"/>
<path d="M854.834 410.756C863.934 415.522 871.734 411.189 876.501 401.656C926.767 393.856 938.467 494.389 940.201 500.456C941.934 506.956 942.801 525.156 939.334 574.989C937.167 602.722 1098.37 405.989 951.034 322.789C961.867 306.756 954.067 227.022 863.501 207.522C831.001 200.589 788.534 230.922 735.234 219.222C526.801 172.856 310.567 217.056 327.467 492.222C331.367 552.456 335.267 617.456 233.001 660.789C114.267 711.056 120.334 842.356 203.967 869.222C238.634 880.489 124.234 958.489 190.967 1027.82C225.634 1064.22 287.601 990.556 350.434 1030.42C445.334 1090.66 492.567 1063.36 511.201 1039.52C549.334 990.989 502.101 893.489 502.101 893.489C502.101 893.489 520.734 863.589 526.801 847.556C556.267 768.689 486.067 733.156 486.067 733.156C377.734 691.556 397.234 570.656 450.101 563.722C505.567 556.789 522.901 606.189 525.934 618.322C525.934 618.322 574.901 685.922 669.367 531.656C762.967 377.389 814.101 388.656 854.834 410.756Z" fill="#423232"/>
<path opacity="0.6" d="M865.082 677.253C865.082 677.253 870.282 706.72 904.516 721.453C913.182 724.92 922.282 719.286 922.282 709.753C921.849 709.753 867.249 680.72 865.082 677.253Z" fill="#B7AEA9"/>
<path opacity="0.6" d="M782.75 606.187C782.75 606.187 810.483 578.453 824.35 575.42L787.516 584.086L782.75 606.187Z" fill="#B7AEA9"/>
<path opacity="0.6" d="M597.716 677.253C597.716 677.253 613.75 713.653 661.85 722.32C709.95 731.42 753.716 696.753 774.083 638.687C774.083 638.687 757.616 692.42 691.75 702.387C626.316 713.22 597.716 677.253 597.716 677.253Z" fill="#B7AEA9"/>
<path opacity="0.29" d="M675.283 482.687C614.183 482.687 564.35 533.82 563.917 596.22C563.917 625.687 574.75 652.554 592.517 672.054L749.817 513.02C730.317 493.954 704.317 482.687 675.283 482.687Z" fill="#DBC3ED"/>
<path opacity="0.23" d="M749.817 513.02L592.517 672.054C612.45 694.154 640.617 707.587 671.817 707.587C732.05 707.587 781.45 657.754 783.183 595.787C784.05 563.287 771.05 533.82 749.817 513.02Z" fill="#C4ADD8"/>
<path opacity="0.29" d="M928.783 482.687C882.417 482.687 843.416 533.82 841.683 596.22C840.816 621.354 846.45 644.32 855.983 662.954L993.35 526.887C979.05 500.02 955.65 482.687 928.783 482.687Z" fill="#DBC3ED"/>
<path opacity="0.23" d="M993.349 526.453L855.982 662.52C870.282 689.82 893.682 707.586 920.982 707.586C966.482 707.586 1005.48 657.753 1008.08 595.786C1008.95 570.22 1003.32 545.953 993.349 526.453Z" fill="#C4ADD8"/>
<path d="M783.182 596.22C781.882 658.187 732.049 708.02 671.816 708.02C611.582 708.02 563.482 658.187 563.482 596.22C563.916 533.82 613.749 482.687 674.849 482.687C735.949 482.687 784.915 533.82 783.182 596.22Z" stroke="#4EC2DD" stroke-width="13.4786" stroke-miterlimit="10" stroke-linecap="round" stroke-linejoin="round"/>
<path d="M1008.08 596.22C1005.48 658.187 966.483 708.02 920.983 708.02C875.483 708.02 839.95 658.187 841.683 596.22C843.416 533.82 882.416 482.687 928.783 482.687C975.15 482.687 1010.68 533.82 1008.08 596.22Z" stroke="#4EC2DD" stroke-width="13.4786" stroke-miterlimit="10" stroke-linecap="round" stroke-linejoin="round"/>
<path d="M564.783 584.086H503.25" stroke="#4EC2DD" stroke-width="13.4786" stroke-miterlimit="10" stroke-linecap="round" stroke-linejoin="round"/>
<path d="M783.616 584.087C783.616 584.087 835.183 564.153 841.683 584.087" stroke="#4EC2DD" stroke-width="13.4786" stroke-miterlimit="10" stroke-linecap="round" stroke-linejoin="round"/>
</g>
</svg>
